<svg id="14e9cb86-cfd0-4b63-b1f9-de49dc49d49e" data-name="Layer 1" xmlns="http://www.w3.org/2000/svg" width="50.03" height="50.03" viewBox="0 0 50.03 50.03"><title>1</title><path d="M25,0a25.42,25.42,0,0,0-2.9.17h0A25,25,0,1,0,25,0ZM23.06,3q1-.08,1.94-.09A22.06,22.06,0,0,1,46.92,22.45a63.13,63.13,0,0,1-10.72,6.85,5.37,5.37,0,0,0-9.5,3.43c0,.08,0,.16,0,.24a48.93,48.93,0,0,1-11.79,1.74,33.73,33.73,0,0,1-.75-11,5.37,5.37,0,0,0,2.51-9.64A64.64,64.64,0,0,1,23.06,3ZM34.52,32.74a2.44,2.44,0,1,1-2.44-2.44h0A2.44,2.44,0,0,1,34.52,32.74Zm-21-11.88a2.44,2.44,0,1,1,2.44-2.44A2.44,2.44,0,0,1,13.48,20.85ZM2.93,25A22.07,22.07,0,0,1,19.06,3.74a57.67,57.67,0,0,0-5.11,9.33l-.46,0A5.37,5.37,0,0,0,11.27,23.3a36.53,36.53,0,0,0,.66,11.4A52.41,52.41,0,0,1,4.82,34,22,22,0,0,1,2.93,25ZM6.6,37.2a54.54,54.54,0,0,0,6.07.46,52.93,52.93,0,0,0,2.67,7.2A22.28,22.28,0,0,1,6.6,37.2ZM25,47.07a22.19,22.19,0,0,1-5.7-.74,53.43,53.43,0,0,1-3.6-8.7,51.82,51.82,0,0,0,11.93-1.87A5.37,5.37,0,0,0,37.39,32,64.82,64.82,0,0,0,47,26,22.06,22.06,0,0,1,25,47.07Z" transform="translate(0.04)" fill="#305278"/></svg>