<svg id="974a1696-eac6-4ce1-b171-c84431b86c53" data-name="Layer 1" xmlns="http://www.w3.org/2000/svg" width="50.5" height="45.62" viewBox="0 0 50.5 45.62"><title>2</title><path d="M50.5,22.8c0-3.53-3.71-6.72-10.19-8.78,1.48-6.69.6-11.53-2.42-13.31A6.24,6.24,0,0,0,33.1.28a22.54,22.54,0,0,0-7.84,4.94A19.71,19.71,0,0,0,17.43.32C15.05-.3,14,0,12.65.77,9.58,2.54,8.7,7.38,10.24,14.07,3.73,16.07,0,19.25,0,22.8s3.71,6.74,10.19,8.78c-1.48,6.69-.6,11.53,2.41,13.3a5.41,5.41,0,0,0,2.68.71h.12a7.88,7.88,0,0,0,2.05-.27,20.52,20.52,0,0,0,7.8-4.94,19.72,19.72,0,0,0,7.82,4.89,8.29,8.29,0,0,0,2,.27,5.31,5.31,0,0,0,2.79-.71c3.07-1.77,3.95-6.61,2.42-13.3C46.79,29.53,50.5,26.35,50.5,22.8Zm-2.59,0c0,2.31-3.15,4.72-8.25,6.31a50.22,50.22,0,0,0-2.34-6.31,50.3,50.3,0,0,0,2.34-6.31C44.76,18.1,47.91,20.51,47.91,22.8ZM36.56,42.62a3.62,3.62,0,0,1-2.82.19,17.47,17.47,0,0,1-6.68-4.25,50.83,50.83,0,0,0,4.23-5.19,49,49,0,0,0,6.46-1.08C39,37.69,38.59,41.45,36.56,42.62ZM12.76,32.24a49.3,49.3,0,0,0,6.46,1.08,50.77,50.77,0,0,0,4.23,5.19,17.45,17.45,0,0,1-6.68,4.31,3.62,3.62,0,0,1-2.82-.19C11.92,41.46,11.49,37.68,12.76,32.24ZM13.89,3l.06,0a2.87,2.87,0,0,1,1.49-.38,5.21,5.21,0,0,1,1.33.19A17.48,17.48,0,0,1,23.44,7a50.75,50.75,0,0,0-4.23,5.19,49.14,49.14,0,0,0-6.46,1.08C11.49,8,11.9,4.22,13.89,3ZM37.74,13.37a49.16,49.16,0,0,0-6.46-1.08,50.84,50.84,0,0,0-4.23-5.19,17.46,17.46,0,0,1,6.67-4.3,5.19,5.19,0,0,1,1.34-.2A2.84,2.84,0,0,1,36.55,3C38.58,4.15,39,7.93,37.74,13.37ZM17.35,15q-.7,1.14-1.4,2.32c-.42.75-.84,1.52-1.22,2.27-.44-1.13-.86-2.37-1.32-3.84C14.71,15.47,16,15.22,17.35,15Zm-1.51,13,.11.2q.7,1.18,1.4,2.32c-1.32-.19-2.65-.44-3.95-.75.38-1.3.83-2.59,1.33-3.85C15.07,26.66,15.46,27.36,15.84,28.05ZM34.53,22.8c-.62,1.33-1.32,2.7-2.13,4.16s-1.7,2.8-2.48,4H29.8c-1.44.1-2.92.19-4.5.19s-3.08-.06-4.61-.2c-.94-1.39-1.82-2.84-2.48-4-.78-1.35-1.5-2.74-2.13-4.16a36.6,36.6,0,0,1,2.13-4.15h0c1-1.62,1.73-2.85,2.48-4h.08c1.45-.1,2.94-.19,4.53-.19s3.08.05,4.61.2c.94,1.39,1.82,2.84,2.48,4C33.17,20,33.89,21.39,34.53,22.8Zm1-3.55c-.31-.6-.63-1.22-1-1.84s-.88-1.53-1.39-2.32c1.32.19,2.64.44,3.93.75-.38,1.31-.83,2.6-1.33,3.87ZM33.15,30.57q.7-1.14,1.4-2.32c.4-.71.83-1.5,1.22-2.27.44,1.13.86,2.37,1.32,3.84C35.79,30.13,34.47,30.38,33.15,30.57ZM22.63,12c.82-1.08,1.7-2.12,2.62-3.12.91,1,1.79,2,2.62,3.12L25.24,12Zm5.23,21.51c-.83,1.08-1.71,2.13-2.62,3.12-.91-1-1.79-2-2.62-3.12l2.62.08ZM13.18,22.8a50.48,50.48,0,0,0-2.35,6.31c-5.09-1.61-8.25-4-8.25-6.31s3.15-4.7,8.25-6.31A50.48,50.48,0,0,0,13.18,22.8Z" transform="translate(0 0.02)" fill="#305278"/><path d="M25.25,29.12c3.13,0,6.26-.89,6.26-2.87V19.46h0c0-2-3.13-2.87-6.26-2.87S19,17.48,19,19.46h0v6.78C19,28.23,22.12,29.12,25.25,29.12Zm4.17-6.47c-.31.31-1.78.89-4.17.89s-3.86-.57-4.17-.89v-1a12.37,12.37,0,0,0,4.17.63,12.37,12.37,0,0,0,4.17-.63Zm-8.35,3.5v-1.2a12.37,12.37,0,0,0,4.17.63,12.37,12.37,0,0,0,4.17-.63v1.2c-.31.31-1.78.89-4.17.89s-3.86-.58-4.17-.89Zm4.17-7.57a8,8,0,0,1,4,.78,8.67,8.67,0,0,1-4,.78,8,8,0,0,1-4-.78,8.67,8.67,0,0,1,4-.79Z" transform="translate(0 0.02)" fill="#305278"/></svg>