<svg id="78a95932-5b80-4acf-a102-741d23da1924" data-name="Layer 1" xmlns="http://www.w3.org/2000/svg" width="50" height="50" viewBox="0 0 50 50"><title>3</title><path d="M25,0A25,25,0,1,0,50,25,25,25,0,0,0,25,0ZM4.35,33.89A23,23,0,0,1,2.49,25a21.91,21.91,0,0,1,1.85-8.89Zm10,10.87A21.27,21.27,0,0,1,10,41.69h4.35Zm27.94-5.44v-13h5.11A22.44,22.44,0,0,1,42.33,39.32ZM45.59,16H19.18a1.28,1.28,0,0,0,0,2.56H46.55a20,20,0,0,1,.9,5.18H41a1.28,1.28,0,0,0-1.28,1.28V42a20.8,20.8,0,0,1-1.85,1.47H25.26V32.1A1.28,1.28,0,0,0,24,30.82H15.41a2.78,2.78,0,0,0-2.56-1.6,2.88,2.88,0,0,0,0,5.75,2.78,2.78,0,0,0,2.56-1.6H22.7V44.69A1.28,1.28,0,0,0,24,46h9.27A22,22,0,0,1,25,47.57,21.58,21.58,0,0,1,16.88,46v-5.5a1.28,1.28,0,0,0-1.28-1.28h-8a10.93,10.93,0,0,1-.7-.9V11.7A22,22,0,0,1,10,8.31V25a1.28,1.28,0,0,0,1.28,1.28H31.2v6.78a3.84,3.84,0,1,0,2.56,0V25a1.28,1.28,0,0,0-1.28-1.28H12.53V6.33a23.43,23.43,0,0,1,5.05-2.56H32.35a22.9,22.9,0,0,1,8.12,4.92H23.34A2.78,2.78,0,0,0,20.78,7.1a2.88,2.88,0,0,0,0,5.75,2.78,2.78,0,0,0,2.56-1.6H42.77A22.47,22.47,0,0,1,45.59,16Z" transform="translate(0)" fill="#305278"/></svg>