<svg id="59aa2a35-6d45-479d-acf0-05a7addacd94" data-name="Layer 1" xmlns="http://www.w3.org/2000/svg" width="50" height="50" viewBox="0 0 50 50"><title>4</title><circle cx="25" cy="25" r="25" fill="none"/><path d="M25,50A25,25,0,1,1,50,25,25,25,0,0,1,25,50ZM25,3A22,22,0,1,0,47,25,22,22,0,0,0,25,3Z" fill="#305278"/><circle cx="25" cy="25" r="15" fill="none"/><path d="M25,40A15,15,0,1,1,40,25,15,15,0,0,1,25,40Zm0-27A12,12,0,1,0,37,25,12,12,0,0,0,25,13Z" fill="#305278"/><circle cx="25" cy="25" r="5" fill="#305278"/></svg>