<svg id="0addd434-48bc-4356-a83d-2041d5306e5b" data-name="图层 1" xmlns="http://www.w3.org/2000/svg" width="59.88mm" height="62.15mm" viewBox="0 0 169.73 176.16"><title>logo </title><path d="M134.75,192A80.89,80.89,0,1,1,203,67.69a88.08,88.08,0,1,0,0,86.78A80.81,80.81,0,0,1,134.75,192Z" transform="translate(-38.28 -23)" fill="#008ccf"/><polygon points="96.02 20.27 60.97 54.88 89.73 41.54 153.54 87.38 96.02 20.27" fill="#b5b6b6"/><polygon points="122.08 42.89 130.02 35.55 161.33 71.95 122.08 42.89" fill="#b5b6b6"/><path d="M119.17,106s4.57.52,13.86-5.39c1.22-.77,8.24-4.94,16-4.87,2.51,0,5.09.45,10.71,5.09.29.24-11.16-1.95-14.31,7.41-.91,2.7-3.15,15.65,10.94,23.22.59.32,13,6.22,30.86.6,1.42-.45,9.74-3.6,15.43-8.31,1.47-1.22-3.67,15.8-13.56,18.43s-53.48,3.6-53.48,3.6L119.4,131.88l-2.92-21.2Z" transform="translate(-38.28 -23)" fill="#125083"/><path d="M84,60.65s-14.08,27,1.95,34.15c4.19,2.25,10,1.8,18.28-3.15,2.7-1.65,14.38-9.89,21-10.34s10.34-.6,17.08,5.24c.15.45-12.73-3.3-20.67,11.83-1.65,3.3-7.94,27.41,14.38,39.4a55.31,55.31,0,0,0,40.6,3.3c3-1.2,11.08-3.75,23.07-14.83,1.8-1.65,8.24-7.64,8.39-8.39s-.75,21.42-20.37,43.44c-1.8,1.8-19.12,20.67-44.79,22.32-3.74.15-21.72.45-34.75-4.79-.75-.6,36.65,8.14,65.31-13.26.1.22-20.47,13.41-53.93,9.21-4.19-.75-27.71-6.36-30.86-26.51-.45-3.24-.56-15.72,10.26-22.54,6.29-4,12.81-2.17,14.76-1.72s-3-6.89-10.79-9.14c-2.7-.45-9.89-1.5-21.72,3.3-1.8.6-16,7.64-17.83-6.89-.15-2.85.3-20.07,7.64-32.21C72.88,76.38,76.33,68.74,84,60.65Z" transform="translate(-38.28 -23)" fill="#008ccf"/></svg>