<svg id="d1fc75d7-9a2e-46b1-abbf-6723b27eb0b2" data-name="Layer 1" xmlns="http://www.w3.org/2000/svg" width="151.36" height="60" viewBox="0 0 151.36 60"><title>logo_dark_blue</title><path d="M32.85,57.55A27.55,27.55,0,1,1,56.1,15.22a30,30,0,1,0,0,29.56A27.54,27.54,0,0,1,32.85,57.55Z" transform="translate(0 0)" fill="#305278"/><path d="M32.7,6.9,20.77,18.69l9.8-4.54L52.3,29.76Z" transform="translate(0 0)" fill="#305278"/><path d="M41.58,14.61l2.71-2.5L54.95,24.51Z" transform="translate(0 0)" fill="#305278"/><path d="M27.55,28.28s1.56.18,4.72-1.84a11,11,0,0,1,5.43-1.66c.85,0,1.73.15,3.65,1.73.1.08-3.8-.66-4.87,2.53-.31.92-1.07,5.33,3.73,7.91.2.11,4.44,2.12,10.51.2A19,19,0,0,0,56,34.32c.5-.42-1.25,5.38-4.61,6.27s-18.21,1.22-18.21,1.22l-5.51-4.74-1-7.22Z" transform="translate(0 0)" fill="#305278" opacity="0.8" style="isolation:isolate"/><path d="M15.56,12.82s-4.79,9.18.66,11.63c1.43.77,3.42.61,6.22-1.07.92-.56,4.9-3.37,7.14-3.52s3.52-.2,5.82,1.79c.05.15-4.34-1.12-7,4C27.8,26.8,25.66,35,33.26,39.1a18.82,18.82,0,0,0,13.82,1.12,21.91,21.91,0,0,0,7.86-5,29.83,29.83,0,0,0,2.86-2.86c.05-.26-.26,7.3-6.94,14.79-.61.61-6.51,7-15.25,7.6-1.28.05-7.4.15-11.84-1.63-.26-.2,12.48,2.77,22.25-4.51,0,.08-7,4.56-18.37,3.14-1.43-.26-9.43-2.17-10.51-9A8.1,8.1,0,0,1,20.64,35a6.34,6.34,0,0,1,5-.59c.66.15-1-2.35-3.68-3.11-.92-.15-3.37-.51-7.4,1.12-.61.2-5.46,2.6-6.07-2.35-.05-1,.1-6.83,2.6-11A35.54,35.54,0,0,1,15.56,12.82Z" transform="translate(0 0)" fill="#305278"/><path d="M80,24.51a6.11,6.11,0,0,0-2.1.35,4.67,4.67,0,0,0-1.7,1.06,5.05,5.05,0,0,0-1.14,1.75,6.59,6.59,0,0,0-.42,2.44,6.77,6.77,0,0,0,.39,2.4,4.26,4.26,0,0,0,2.8,2.67,7.29,7.29,0,0,0,2.22.32c.22,0,.46,0,.71,0l.75-.1.74-.15a6.19,6.19,0,0,0,.64-.18v1.45a6.54,6.54,0,0,1-1.37.35,10.28,10.28,0,0,1-1.6.13,8.75,8.75,0,0,1-3-.46,5.81,5.81,0,0,1-2.17-1.33A5.61,5.61,0,0,1,73.51,33a9.09,9.09,0,0,1,0-5.72,6.38,6.38,0,0,1,1.37-2.25,6.15,6.15,0,0,1,2.17-1.46,7.51,7.51,0,0,1,2.87-.53c.28,0,.56,0,.83,0s.54.06.78.1.48.1.7.16l.41.12a.19.19,0,0,1,.14.18V25a9.54,9.54,0,0,0-1.33-.33A7.62,7.62,0,0,0,80,24.51Z" transform="translate(0 0)" fill="#305278"/><path d="M79.94,23.06c.28,0,.56,0,.83,0s.54.06.78.1.48.1.7.16l.41.12a.19.19,0,0,1,.14.18V25a9.54,9.54,0,0,0-1.33-.33A7.66,7.66,0,0,0,80,24.51a6.12,6.12,0,0,0-2.1.35,4.67,4.67,0,0,0-1.7,1.06,5.05,5.05,0,0,0-1.14,1.75,6.59,6.59,0,0,0-.42,2.44,6.77,6.77,0,0,0,.39,2.4,4.26,4.26,0,0,0,2.8,2.67,7.29,7.29,0,0,0,2.22.32c.22,0,.46,0,.71,0l.75-.1.74-.15a6.2,6.2,0,0,0,.64-.18v1.44a6.52,6.52,0,0,1-1.37.35,10.25,10.25,0,0,1-1.6.13,8.75,8.75,0,0,1-3-.46,5.82,5.82,0,0,1-2.17-1.33A5.62,5.62,0,0,1,73.51,33a9.09,9.09,0,0,1,0-5.72,6.37,6.37,0,0,1,1.37-2.25,6.15,6.15,0,0,1,2.17-1.46,7.55,7.55,0,0,1,2.87-.53m0-.06a7.55,7.55,0,0,0-2.89.53A6.33,6.33,0,0,0,74.87,25a6.47,6.47,0,0,0-1.38,2.27A8.43,8.43,0,0,0,73,30.18,8.53,8.53,0,0,0,73.46,33a5.68,5.68,0,0,0,1.34,2.15A5.84,5.84,0,0,0,77,36.54,8.86,8.86,0,0,0,80,37a10.38,10.38,0,0,0,1.61-.13A6.69,6.69,0,0,0,83,36.52l0,0V34.94l-.08,0a6.14,6.14,0,0,1-.64.18l-.73.15c-.25,0-.5.08-.75.1s-.48,0-.7,0a7.16,7.16,0,0,1-2.2-.32,4.2,4.2,0,0,1-2.76-2.63,6.76,6.76,0,0,1-.38-2.37,6.59,6.59,0,0,1,.41-2.41A4.92,4.92,0,0,1,76.29,26a4.63,4.63,0,0,1,1.68-1A6.11,6.11,0,0,1,80,24.57a7.48,7.48,0,0,1,1.44.14A10.3,10.3,0,0,1,82.8,25l.08,0V23.65a.25.25,0,0,0-.18-.24l-.41-.12c-.21-.06-.45-.11-.7-.16s-.52-.08-.79-.1-.56,0-.84,0Z" transform="translate(0 0)" fill="#305278"/><path d="M87.26,36.69H85.63V23.31h3.71s1.06,0,1.53.1a6.78,6.78,0,0,1,1.3.31A3.7,3.7,0,0,1,94,25a3.5,3.5,0,0,1,.62,2.11,3.82,3.82,0,0,1-.41,1.8A3.53,3.53,0,0,1,93,30.21a5.68,5.68,0,0,1-1.87.79,10.64,10.64,0,0,1-2.5.27c-.45,0-.91,0-1.39-.06v5.49Zm0-7c.22,0,.45,0,.69.06l.68,0a9.15,9.15,0,0,0,2-.18,3.79,3.79,0,0,0,1.32-.53,2.11,2.11,0,0,0,.74-.84,2.62,2.62,0,0,0,.23-1.13,2.07,2.07,0,0,0-.38-1.28,2.31,2.31,0,0,0-1.06-.76,4.28,4.28,0,0,0-1-.23,11.43,11.43,0,0,0-1.3-.06h-1.7a.19.19,0,0,0-.19.19V29.7Z" transform="translate(0 0)" fill="#305278"/><path d="M89.34,23.31s1.06,0,1.53.1a6.78,6.78,0,0,1,1.3.31A3.7,3.7,0,0,1,94,25a3.5,3.5,0,0,1,.62,2.11,3.81,3.81,0,0,1-.41,1.8A3.53,3.53,0,0,1,93,30.21a5.69,5.69,0,0,1-1.87.79,10.64,10.64,0,0,1-2.5.27c-.45,0-.91,0-1.39-.06v5.5H85.64V23.31h3.71m-.71,6.47a9.15,9.15,0,0,0,2-.18,3.78,3.78,0,0,0,1.32-.53,2.11,2.11,0,0,0,.74-.84,2.62,2.62,0,0,0,.23-1.13,2.06,2.06,0,0,0-.38-1.28,2.31,2.31,0,0,0-1.06-.76,4.28,4.28,0,0,0-1-.23,11.41,11.41,0,0,0-1.3-.06h-1.7a.19.19,0,0,0-.19.19V29.7c.22,0,.45,0,.69.06l.68,0m.71-6.53H85.57V36.76h1.75v-5.5c.45,0,.9.05,1.33.05A11.05,11.05,0,0,0,91.17,31a5.84,5.84,0,0,0,1.9-.79,3.62,3.62,0,0,0,1.19-1.32,3.92,3.92,0,0,0,.41-1.82A3.57,3.57,0,0,0,94,25a3.81,3.81,0,0,0-1.85-1.3,6.79,6.79,0,0,0-1.3-.31c-.47-.07-1.5-.1-1.55-.1Zm-2,6.39V25a.14.14,0,0,1,.14-.14h1.7a11.38,11.38,0,0,1,1.3.06,4.16,4.16,0,0,1,1,.22,2.26,2.26,0,0,1,1,.74,2,2,0,0,1,.36,1.24,2.68,2.68,0,0,1-.22,1.1,2,2,0,0,1-.72.82,3.9,3.9,0,0,1-1.3.52,9.31,9.31,0,0,1-1.95.18c-.21,0-.44,0-.68,0l-.64-.05Z" transform="translate(0 0)" fill="#305278"/><path d="M103.78,24.51a6.11,6.11,0,0,0-2.1.35,4.67,4.67,0,0,0-1.7,1.06,5,5,0,0,0-1.14,1.75,6.59,6.59,0,0,0-.42,2.44,6.79,6.79,0,0,0,.39,2.4,4.26,4.26,0,0,0,2.8,2.67,7.28,7.28,0,0,0,2.22.32c.22,0,.46,0,.71,0l.75-.1.74-.15a6.16,6.16,0,0,0,.64-.18v1.45a6.52,6.52,0,0,1-1.37.35,10.27,10.27,0,0,1-1.6.13,8.75,8.75,0,0,1-3-.46,5.81,5.81,0,0,1-2.17-1.33A5.62,5.62,0,0,1,97.26,33a9.09,9.09,0,0,1,0-5.72,6.38,6.38,0,0,1,1.37-2.25,6.15,6.15,0,0,1,2.17-1.46,7.51,7.51,0,0,1,2.87-.53c.28,0,.55,0,.83,0s.54.06.78.1.48.1.7.16l.41.12a.2.2,0,0,1,.15.19V25a9.56,9.56,0,0,0-1.33-.33A7.58,7.58,0,0,0,103.78,24.51Z" transform="translate(0 0)" fill="#305278"/><path d="M103.7,23.06c.28,0,.56,0,.83,0s.54.06.78.1.48.1.7.16l.41.12a.2.2,0,0,1,.15.19V25a9.52,9.52,0,0,0-1.33-.33,7.67,7.67,0,0,0-1.45-.14,6.11,6.11,0,0,0-2.1.35,4.67,4.67,0,0,0-1.7,1.06,5.05,5.05,0,0,0-1.14,1.75,6.6,6.6,0,0,0-.42,2.44,6.77,6.77,0,0,0,.39,2.4,4.26,4.26,0,0,0,2.8,2.67,7.28,7.28,0,0,0,2.22.32c.22,0,.46,0,.71,0l.75-.1.74-.15a6.14,6.14,0,0,0,.64-.18v1.44a6.51,6.51,0,0,1-1.37.35,10.27,10.27,0,0,1-1.6.13,8.75,8.75,0,0,1-3-.46,5.82,5.82,0,0,1-2.17-1.33A5.61,5.61,0,0,1,97.26,33a9.09,9.09,0,0,1,0-5.72,6.39,6.39,0,0,1,1.37-2.25,6.15,6.15,0,0,1,2.17-1.46,7.54,7.54,0,0,1,2.87-.53m0-.06a7.54,7.54,0,0,0-2.89.53A6.32,6.32,0,0,0,98.62,25a6.48,6.48,0,0,0-1.38,2.27,8.43,8.43,0,0,0-.48,2.89A8.53,8.53,0,0,0,97.22,33a5.68,5.68,0,0,0,1.34,2.15,5.85,5.85,0,0,0,2.19,1.35,8.86,8.86,0,0,0,3,.47,10.4,10.4,0,0,0,1.61-.13,6.7,6.7,0,0,0,1.38-.36l0,0V34.94l-.08,0a6.53,6.53,0,0,1-.64.18l-.73.15c-.25,0-.5.08-.75.1s-.48,0-.7,0a7.15,7.15,0,0,1-2.2-.32,4.2,4.2,0,0,1-2.76-2.63,6.76,6.76,0,0,1-.38-2.37,6.59,6.59,0,0,1,.41-2.41A4.92,4.92,0,0,1,100,26a4.63,4.63,0,0,1,1.68-1,6.12,6.12,0,0,1,2.08-.35,7.53,7.53,0,0,1,1.44.14,10.32,10.32,0,0,1,1.32.33l.08,0V23.66a.26.26,0,0,0-.19-.25l-.41-.12c-.21-.06-.45-.11-.7-.16s-.52-.08-.79-.1-.56,0-.84,0Z" transform="translate(0 0)" fill="#305278"/><path d="M111,29.1h6.78V23.31h1.63V36.69H117.8V30.57H111V36.7h-1.63V23.31H111Z" transform="translate(0 0)" fill="#305278"/><path d="M119.44,23.31V36.69h-1.63V30.57H111V36.7h-1.63V23.31H111V29.1h6.78V23.31h1.63m.06-.06h-1.75V29h-6.66v-5.8h-1.75V36.75h1.75V30.63h6.66v6.12h1.75V23.25Z" transform="translate(0 0)" fill="#305278"/><path d="M121.71,36.69l5.23-13.38h1.41l5.45,13.38H132l-1.6-4h-5.6l-1.6,4Zm5.92-11.3q-.9,2.5-1.71,4.54l-.5,1.26h4.44l-.51-1.26q-.83-2.08-1.68-4.54Z" transform="translate(0 0)" fill="#305278"/><path d="M128.35,23.31l5.45,13.38H132l-1.6-4h-5.6l-1.6,4H121.7l5.23-13.38h1.41m-2.93,7.88h4.44l-.51-1.26c-.55-1.39-1.11-2.9-1.68-4.54h0q-.9,2.5-1.71,4.54l-.5,1.26m3-7.94h-1.49v0l-5.22,13.38,0,.08h1.65v0l1.59-4h5.51l1.58,4v0h1.9l0-.08L128.4,23.29v0Zm-2.88,7.88.47-1.18c.53-1.32,1.09-2.82,1.67-4.44.55,1.6,1.11,3.09,1.64,4.44l.47,1.17Z" transform="translate(0 0)" fill="#305278"/><path d="M136.07,36.69V23.31h1.63V36.69Z" transform="translate(0 0)" fill="#305278"/><path d="M137.71,23.31V36.69h-1.63V23.31h1.63m.06-.06H136V36.76h1.75V23.25Z" transform="translate(0 0)" fill="#305278"/><path d="M147.3,30.77q1.23,1.77,2.43,3.64h.06q-.13-2-.13-4V23.31h1.64V36.69h-1.63l-5-7.46q-1.36-1.95-2.43-3.64h-.06c.09,1.22.13,2.64.13,4.27V36.7h-1.63V23.31h1.62Z" transform="translate(0 0)" fill="#305278"/><path d="M151.3,23.31V36.69h-1.63l-5-7.46c-.91-1.3-1.72-2.51-2.43-3.64h-.06c.09,1.22.13,2.64.13,4.27V36.7h-1.63V23.31h1.62l5,7.46q1.23,1.77,2.43,3.64h.06q-.13-1.95-.13-4V23.31h1.64m.06-.06H149.6v7.19c0,1.3,0,2.6.12,3.86-.78-1.21-1.57-2.4-2.37-3.55l-5-7.46,0,0h-1.71V36.76h1.75v-6.9c0-1.56,0-3-.12-4.14.7,1.1,1.49,2.29,2.37,3.55l5,7.46,0,0h1.73V23.25Z" transform="translate(0 0)" fill="#305278"/></svg>