<svg id="e2d099b9-e347-43bf-a918-64c4570dc851" data-name="white_wave" xmlns="http://www.w3.org/2000/svg" width="1920" height="910" viewBox="0 0 1920 910"><title>white_wave</title><path d="M401.55,732.08c52.22,24.37,441.83,229.76,942.84,76.59,69.63-27.85,257.61-87,535.83-344.35,6.52-6,15.67-14.41,26.48-24.46-127.4,90.88-285,150.31-314.56,159.66-414,130.54-703.22-6.67-716.85-13.93C548,409.78,600,108.94,621.15,46.28A265.14,265.14,0,0,1,641.56,0H24.41C2,208.77,41.17,538.49,401.55,732.08Z" fill="#fff" opacity="0.8" style="isolation:isolate"/><path d="M1920,427.46c-4.65,4.34-9.1,8.49-13.31,12.4-10.81,10-20,18.48-26.48,24.46C1602,721.64,1414,780.82,1344.39,808.67c-501,153.17-890.62-52.22-942.84-76.59C41.17,538.49,2,208.77,24.41,0H0V910H1920V427.46Z" fill="#fff"/></svg>