<svg id="6d4c2a73-4815-4f29-8a85-f8280a66105f" data-name="Layer 1" xmlns="http://www.w3.org/2000/svg" width="321" height="320.47" viewBox="0 0 321 320.47"><title>garage_automatic_parking</title><g opacity="0.2" style="isolation:isolate"><circle cx="160" cy="160.47" r="160" fill="#eff6ff"/></g><g opacity="0.4" style="isolation:isolate"><circle cx="160" cy="160.47" r="120.93" fill="#eff6ff"/></g><g opacity="0.4" style="isolation:isolate"><circle cx="160" cy="160.47" r="89.29" fill="#b2c0d3"/></g><g opacity="0.8" style="isolation:isolate"><circle cx="160" cy="160.47" r="58.34" fill="#7193c4"/></g><path d="M205,126.31a2.1,2.1,0,0,1-2.1,2.1H190.41a2.1,2.1,0,0,1-2.1-2.1h0V93.42a2.1,2.1,0,0,1,2.1-2.1h12.54a2.1,2.1,0,0,1,2.1,2.1h0Z" fill="#1f354a"/><path d="M205,216.64a2.1,2.1,0,0,1-2.1,2.1H190.41a2.1,2.1,0,0,1-2.1-2.1h0V183.75a2.1,2.1,0,0,1,2.1-2.1h12.54a2.1,2.1,0,0,1,2.1,2.1h0Z" fill="#1f354a"/><path d="M133.2,126.31a2.1,2.1,0,0,1-2.1,2.1H118.48a2.1,2.1,0,0,1-2.1-2.1h0V93.42a2.1,2.1,0,0,1,2.1-2.1H131a2.1,2.1,0,0,1,2.1,2.1h0v32.89Z" fill="#1f354a"/><path d="M133.2,216.64a2.1,2.1,0,0,1-2.1,2.1H118.48a2.1,2.1,0,0,1-2.1-2.1h0V183.75a2.1,2.1,0,0,1,2.1-2.1H131a2.1,2.1,0,0,1,2.1,2.1h0v32.89Z" fill="#1f354a"/><path d="M201.78,116c.63-3,1.84-6.42,1.84-25.18,0-34.91-42.95-34.91-42.95-34.91s-42.95,0-42.95,34.91c0,18.08,1.12,21.89,1.77,24.85-3.22,1.74-13.1,7.56-12.66,13.59,0,0,8.27,2.39,13.09-4.49.1,15.78.3,59-1.08,64.18-1.58,6.08-6.16,42.12,13.59,49.7s28.16,6.23,28.16,6.23,8.48,1.35,28.16-6.23c19.9-7.58,15.32-43.62,13.74-49.7-1.35-5.13-1.18-46.86-1.08-63.3,4.88,5.79,12.42,3.61,12.42,3.61C214.25,123.54,205.48,118,201.78,116Z" fill="#fff"/><g opacity="0.4"><path d="M159.18,229.92h4.88c4.8,0,12.61-1.65,12.61-3.83L145.74,226C146,228.2,154.44,229.92,159.18,229.92Z" fill="#1f354a"/><g opacity="0.3" style="isolation:isolate"><path d="M159.18,236.15h4.88c4.8,0,12.61-1.65,12.61-3.83l-30.93-.07C146,234.35,154.44,236.15,159.18,236.15Z" fill="#1f354a"/></g></g><g opacity="0.4"><g opacity="0.3" style="isolation:isolate"><path d="M163.3,60.32h-4.88c-4.8,0-12.61,1.65-12.61,3.83l30.86.07C176.52,62.12,168,60.32,163.3,60.32Z" fill="#1f354a"/></g></g><path d="M124.79,70.3a7.88,7.88,0,0,0,5.71,2.48,7.72,7.72,0,0,0,7.73-7.71s0,0,0,0a7.59,7.59,0,0,0-1.05-3.9A36.72,36.72,0,0,0,124.79,70.3Z" fill="#1ba3ff"/><path d="M196.64,70.23a36.23,36.23,0,0,0-12.39-9.08,7.71,7.71,0,0,0,12.39,9.08Z" fill="#1ba3ff"/><path d="M168,156.19c0,6.08-3.23,0-7.13,0s-7.13,6.08-7.13,0,3.23-11,7.13-11S168,150.19,168,156.19Z" fill="#1ba3ff"/><path d="M133,135.92s10.14-2.7,27.63-2.7,27.63,2.7,27.63,2.7l5-23.43v-.37c-.45-14-17.19-25.68-27.93-25.68H154.29c-11,0-26.35,10.89-26.35,25.38l.07.9Z" fill="#1f354a"/><g opacity="0.1" style="isolation:isolate"><path d="M188.38,135.92l3.53-16.44c-28.76,6.83-52.71-4.43-63.52-11a24.58,24.58,0,0,0-.3,3.38l.07.9,5,23.2s10.14-2.7,27.63-2.7S188.38,135.92,188.38,135.92Z" fill="#fff"/></g><path d="M194.39,124.36l-4.58,19.52v56.54l4.58,4Z" fill="#1f354a"/><g opacity="0.1" style="isolation:isolate"><path d="M194.39,124.36l-4.65,19.52v30.93a218.34,218.34,0,0,1,4.65-22.15Z" fill="#fff"/></g><path d="M127,124.36l4.65,19.52v56.54l-4.65,4Z" fill="#1f354a"/><g opacity="0.1" style="isolation:isolate"><path d="M131.62,172.11V143.88L127,124.36V159.5A76.57,76.57,0,0,1,131.62,172.11Z" fill="#fff"/></g><path d="M186.28,204.4H135.75s-5.56,11-5.48,11.19c.38,4.28,17.34,7.81,26.8,7.81h9.84c9.69,0,25.38-3.3,25.38-7.73Z" fill="#1f354a"/><g opacity="0.1" style="isolation:isolate"><path d="M187.1,206l-.83-1.58H135.75s-5.56,11-5.48,11.19a2.87,2.87,0,0,0,1.05,1.73C141.83,213.93,168.86,205.82,187.1,206Z" fill="#fff"/></g><path d="M188,53.5a1,1,0,0,1-.86-1.5L214.32,5a1,1,0,0,1,.87-.5h38.59a1,1,0,1,1,0,2h-38L188.87,53A1,1,0,0,1,188,53.5Z" fill="#18acff"/><circle cx="188.01" cy="52.51" r="4.88" fill="#1ba3ff"/><path d="M270.45,63a31.48,31.48,0,1,1,31.48-31.48A31.52,31.52,0,0,1,270.45,63Zm0-61a29.48,29.48,0,1,0,29.48,29.48A29.52,29.52,0,0,0,270.45,2Z" fill="#18acff"/><path d="M270.44,55.51a24.1,24.1,0,1,1,24.1-24.1A24.1,24.1,0,0,1,270.44,55.51Z" fill="#1ba3ff"/><path d="M270.44,40c-5.26,0-9.54,1.2-9.54,2.7s4.28,2.7,9.54,2.7,9.54-1.2,9.54-2.7S275.78,40,270.44,40Zm0,3.75c-2.1,0-3.75-.45-3.75-1.05s1.73-1.05,3.75-1.05,3.75.45,3.75,1.05S272.55,43.8,270.44,43.8Z" fill="#1f354a"/><path d="M270.44,15.87a10.3,10.3,0,0,0-10.29,10.29c0,5.63,10.29,16,10.29,16s10.29-10.36,10.29-16a10.25,10.25,0,0,0-10.22-10.29Zm0,15.47a5.18,5.18,0,1,1,5.18-5.18h0A5.19,5.19,0,0,1,270.44,31.33Z" fill="#fff"/><path d="M286.14,121.15a1,1,0,0,1-.87-.51l-9.92-17.51H214.06a1,1,0,0,1,0-2h61.87a1,1,0,0,1,.87.51l10.21,18a1,1,0,0,1-.87,1.49Z" fill="#18acff"/><circle cx="214.06" cy="102.13" r="4.88" fill="#1ba3ff"/><path d="M289.52,181.9A31.48,31.48,0,1,1,321,150.41,31.52,31.52,0,0,1,289.52,181.9Zm0-61A29.48,29.48,0,1,0,319,150.41,29.52,29.52,0,0,0,289.52,120.93Z" fill="#18acff"/><path d="M289.52,174.51a24.1,24.1,0,1,1,24.1-24.1A24.1,24.1,0,0,1,289.52,174.51Z" fill="#1ba3ff"/><rect x="280.21" y="157.47" width="18.62" height="7.21" fill="#fff"/><g opacity="0.8" style="isolation:isolate"><rect x="280.21" y="148.61" width="18.62" height="7.21" fill="#fff"/></g><g opacity="0.6" style="isolation:isolate"><rect x="280.21" y="139.75" width="18.62" height="7.21" fill="#fff"/></g><g opacity="0.4" style="isolation:isolate"><rect x="284.64" y="133.59" width="9.84" height="4.58" fill="#fff"/></g><path d="M295.22,146.06h-3.6v-9.84l-7.81,15h3.53V161Z" fill="#1f354a"/><path d="M274.12,222.82a1,1,0,0,1-1-.69l-5-15.37H214.06a1,1,0,0,1,0-2h54.89a1,1,0,0,1,1,.69l5.18,16.07a1,1,0,0,1-.65,1.26A1,1,0,0,1,274.12,222.82Z" fill="#18acff"/><circle cx="214.06" cy="205.75" r="4.88" fill="#1ba3ff"/><path d="M272.55,283.71A31.48,31.48,0,1,1,304,252.22,31.52,31.52,0,0,1,272.55,283.71Zm0-61A29.48,29.48,0,1,0,302,252.22,29.52,29.52,0,0,0,272.55,222.74Z" fill="#18acff"/><path d="M272.55,276.32a24.1,24.1,0,1,1,24.1-24.1A24.1,24.1,0,0,1,272.55,276.32Z" fill="#1ba3ff"/><rect x="259.41" y="257.7" width="26.28" height="4.05" fill="#fff"/><rect x="259.41" y="257.7" width="16.29" height="4.05" fill="#1f354a"/><rect x="259.41" y="250.2" width="26.28" height="4.05" fill="#fff"/><rect x="259.41" y="250.2" width="20.72" height="4.05" fill="#1f354a"/><rect x="259.41" y="242.61" width="26.28" height="4.05" fill="#fff"/><rect x="259.41" y="242.61" width="10.36" height="4.05" fill="#1f354a"/><path d="M126.36,53.58a1,1,0,0,1-.86-.49L99.44,8.61H62.62a1,1,0,0,1,0-2H100a1,1,0,0,1,.86.49l26.35,45a1,1,0,0,1-.86,1.51Z" fill="#18acff"/><circle cx="126.36" cy="52.58" r="4.88" fill="#1ba3ff"/><path d="M48.28,66A31.48,31.48,0,1,1,79.76,34.49,31.52,31.52,0,0,1,48.28,66Zm0-61A29.48,29.48,0,1,0,77.76,34.49,29.52,29.52,0,0,0,48.28,5Z" fill="#18acff"/><path d="M48.28,58.59a24.1,24.1,0,1,1,24.1-24.1A24.1,24.1,0,0,1,48.28,58.59Z" fill="#1ba3ff"/><path d="M62.77,24,48.28,26.45,33.79,24s-3.9,20.27,14.49,25.9C66.67,44.32,62.77,24,62.77,24Z" fill="#1f354a"/><path d="M51.81,41.09l-1.35-4.5a3.08,3.08,0,1,0-5.26-2.18,3.19,3.19,0,0,0,.9,2.18L44.75,41h7.06Z" fill="#fff"/><path d="M110.6,146.23H66.75a1,1,0,0,1,0-2H110.6a1,1,0,1,1,0,2Z" fill="#18acff"/><circle cx="110.22" cy="145.23" r="4.88" fill="#1ba3ff"/><path d="M36.34,176.71a31.48,31.48,0,1,1,31.48-31.48A31.52,31.52,0,0,1,36.34,176.71Zm0-61a29.48,29.48,0,1,0,29.48,29.48A29.52,29.52,0,0,0,36.34,115.75Z" fill="#18acff"/><path d="M36.34,169.33a24.1,24.1,0,1,1,24.1-24.1A24.1,24.1,0,0,1,36.34,169.33Z" fill="#1ba3ff"/><path d="M46.4,138.62a11.67,11.67,0,0,0-22,.53,8,8,0,0,0,3,15.32,7.34,7.34,0,0,0,3.6-.9,12.27,12.27,0,0,0,4.43.9,11.41,11.41,0,0,0,5.33-1.28,7.81,7.81,0,0,0,4.35,1.28,8,8,0,0,0,8-8A7.86,7.86,0,0,0,46.4,138.62Z" fill="#fff"/><path d="M36,141.93l-3.08-3.08-3.08,3.08h1.5v6.53h3.15v-6.53Z" fill="#1f354a"/><path d="M36.64,145.38l3.08,3.08,3.15-3.08H41.29v-6.53H38.14v6.53Z" fill="#1ba3ff"/><path d="M46.77,215.61a1,1,0,0,1-.86-1.5l8.41-14.42a1,1,0,0,1,.86-.5h51.13a1,1,0,0,1,0,2H55.76l-8.12,13.92A1,1,0,0,1,46.77,215.61Z" fill="#18acff"/><circle cx="106.32" cy="200.19" r="4.88" fill="#1ba3ff"/><path d="M44,276.42a31.48,31.48,0,1,1,31.48-31.48A31.52,31.52,0,0,1,44,276.42Zm0-61a29.48,29.48,0,1,0,29.48,29.48A29.52,29.52,0,0,0,44,215.46Z" fill="#18acff"/><path d="M44,269a24.1,24.1,0,1,1,24.1-24.1A24.1,24.1,0,0,1,44,269Z" fill="#1ba3ff"/><g opacity="0.4" style="isolation:isolate"><path d="M44,233.38a30.46,30.46,0,0,0-16.82,5l1.88,2.85a27,27,0,0,1,29.88,0l1.88-2.85A30.28,30.28,0,0,0,44,233.38Z" fill="#fff"/></g><g opacity="0.6" style="isolation:isolate"><path d="M31.23,244.57l1.88,2.85a20,20,0,0,1,21.77,0l1.88-2.85A23.19,23.19,0,0,0,31.23,244.57Z" fill="#fff"/></g><path d="M38.44,255.53l1.88,2.85a6.86,6.86,0,0,1,7.36,0l1.88-2.85A9.83,9.83,0,0,0,44,253.88,10.45,10.45,0,0,0,38.44,255.53Z" fill="#fff"/><g opacity="0.8" style="isolation:isolate"><path d="M34.91,250.19,36.79,253a13,13,0,0,1,14.42,0l1.88-2.85A16.62,16.62,0,0,0,34.91,250.19Z" fill="#fff"/></g></svg>