<svg id="750e2547-7317-45b7-940f-b223c498068d" data-name="Layer 1" xmlns="http://www.w3.org/2000/svg" xmlns:xlink="http://www.w3.org/1999/xlink" width="320" height="341.81" viewBox="0 0 320 341.81"><defs><clipPath id="b226f647-2d81-4e0e-9842-bf0509a7fa87"><circle cx="160" cy="160" r="89.29" fill="none"/></clipPath></defs><title>qr_code</title><g opacity="0.2" style="isolation:isolate"><circle cx="160" cy="160" r="160" fill="#eff6ff"/></g><g opacity="0.4" style="isolation:isolate"><circle cx="160" cy="160" r="120.93" fill="#eff6ff"/></g><g opacity="0.4" style="isolation:isolate"><circle cx="160" cy="160" r="89.29" fill="#b2c0d3"/></g><g opacity="0.8" style="isolation:isolate"><circle cx="160" cy="160" r="58.34" fill="#7193c4"/></g><g clip-path="url(#b226f647-2d81-4e0e-9842-bf0509a7fa87)"><path d="M103,289,78.55,261.15,123.6,208.5C123.53,208.5,111.48,272.31,103,289Z" fill="#1ba3ff"/><path d="M179.4,156.6c-2.26,22.39-1.71,39.16-15.61,52.52s-18.14,13.49-18.14,13.49l-19.44-12s2.74-3.7,3.49-15.88,1.3-32.39,1.3-32.39-3.36-7.94,0-13.15-1.51-18.83-1.51-18.83,2.4-5.68,7.6,1.57S181.66,134.21,179.4,156.6Z" fill="#f4be92"/><path d="M139.35,184.94l.62.41a35.2,35.2,0,0,1,9.85,8.72c-.23.48-8.68,18.63-8.07,26l9.52,4.72c0,.06,2.48-21.07.12-28.4a20,20,0,0,1,2.49,15.53s14.79-12.8,14.65-21.16c0,0,3-.07,5.89-3.77S140,169.61,139.35,184.94Z" fill="#dda783"/><path d="M136.33,130.78l-.55,52.45s1,9.59,12,8.29S136.33,130.78,136.33,130.78Z" fill="#e5a87f"/><path d="M189.81,133.52c1.78,1.85,1.92,4.66.27,6.16l-15,14.17c-1.57,1.51-4.38,1.23-6.09-.68h0c-1.78-1.85-1.92-4.66-.27-6.16l14.93-14.1c1.64-1.57,4.38-1.23,6.16.62Z" fill="#f4be92"/><path d="M158.72,190.15H145.58a8.88,8.88,0,0,1-8.9-8.87s0,0,0,0V111.41a8.88,8.88,0,0,1,8.87-8.9h13.18Z" fill="#030307"/><path d="M158.72,102.51h13.49a8.88,8.88,0,0,1,8.9,8.87s0,0,0,0v69.91a8.88,8.88,0,0,1-8.87,8.9H158.72Z" fill="#0b0914"/><rect x="139.35" y="112.16" width="39.03" height="63.2" fill="#fff"/><path d="M176.39,108.67a1.3,1.3,0,0,1-1.3,1.3H143.86a1.3,1.3,0,0,1-1.3-1.3h0a1.3,1.3,0,0,1,1.3-1.3h31.22a1.26,1.26,0,0,1,1.3,1.22s0,.06,0,.08Z" fill="#2c2a3f"/><path d="M147.77,223.49l-40.12,71L103,289c8.49-16.71,20.54-80.52,20.54-80.52l2.74,2.05Z" fill="#0e81c1"/><path d="M181.52,135l2,11-2.4,2.26V135.3Z" fill="#dda783"/><polygon points="168.45 146.6 169.68 146.6 169.68 150.23 170.91 150.23 170.91 146.53 169.68 146.53 169.68 145.37 168.45 145.37 168.45 146.6"/><rect x="167.21" y="146.53" width="1.23" height="1.23"/><rect x="167.21" y="144.14" width="1.23" height="1.23"/><rect x="167.21" y="128.39" width="1.23" height="1.23"/><rect x="162.42" y="149" width="6.02" height="1.23"/><path d="M164.82,126v6.09h6.08V126Zm4.85,4.86H166v-3.63h3.62Z"/><polygon points="163.65 136.88 162.42 136.88 162.42 139.34 166.05 139.34 166.05 136.88 164.82 136.88 164.82 138.11 163.65 138.11 163.65 136.88"/><polygon points="168.45 135.71 168.45 136.88 170.91 136.88 170.91 139.34 169.68 139.34 169.68 138.11 168.45 138.11 168.45 140.51 170.91 140.51 170.91 144.13 169.68 144.13 169.68 141.74 167.22 141.74 167.22 135.71 164.83 135.71 164.83 133.25 166.06 133.25 166.06 134.48 169.68 134.48 169.68 133.25 170.91 133.25 170.91 135.71 168.45 135.71"/><rect x="169.68" y="144.14" width="1.23" height="1.23"/><rect x="161.19" y="146.53" width="4.86" height="1.23"/><rect x="161.19" y="144.14" width="2.46" height="1.23"/><polygon points="164.82 141.74 163.65 141.74 163.65 140.51 161.19 140.51 161.19 141.74 162.42 141.74 162.42 144.13 164.82 144.13 164.82 141.74"/><rect x="159.95" y="149" width="1.23" height="1.23"/><rect x="159.95" y="135.65" width="1.23" height="4.86"/><polygon points="159.95 133.25 159.95 134.48 163.65 134.48 163.65 133.25 162.42 133.25 162.42 132.02 161.19 132.02 161.19 130.85 159.95 130.85 159.95 132.08 161.19 132.08 161.19 133.25 159.95 133.25"/><polygon points="158.72 144.14 159.95 144.14 159.95 149 158.79 149 158.79 150.23 156.33 150.23 156.33 149 158.72 149 158.72 144.14"/><rect x="158.72" y="142.9" width="2.47" height="1.23"/><rect x="157.56" y="135.65" width="1.23" height="1.23"/><rect x="156.33" y="139.27" width="1.23" height="1.24"/><polygon points="157.56 136.88 157.56 138.11 156.33 138.11 156.33 139.34 155.09 139.34 155.09 135.65 156.33 135.65 156.33 136.88 157.56 136.88"/><rect x="155.09" y="140.51" width="1.24" height="3.62"/><polygon points="157.56 144.14 153.93 144.14 153.93 150.23 155.16 150.23 155.16 145.37 157.56 145.37 157.56 144.14"/><polygon points="155.09 132.08 156.33 132.08 156.33 133.25 150.3 133.25 150.3 134.48 152.7 134.48 152.7 136.88 153.93 136.88 153.93 134.48 157.56 134.48 157.56 133.25 158.79 133.25 158.79 130.85 157.56 130.85 157.56 128.46 158.79 128.46 158.79 127.22 161.19 127.22 161.19 128.39 159.95 128.39 159.95 129.62 162.42 129.62 162.42 130.85 163.65 130.85 163.65 129.62 162.42 129.62 162.42 127.22 163.65 127.22 163.65 125.99 158.72 125.99 158.72 127.22 157.56 127.22 157.56 125.99 156.33 125.99 156.33 127.22 153.93 127.22 153.93 128.46 156.33 128.46 156.33 130.85 155.16 130.85 155.16 129.62 153.93 129.62 153.93 130.85 155.09 130.85 155.09 132.08"/><rect x="149.07" y="146.53" width="1.23" height="1.23"/><rect x="149.07" y="128.39" width="1.23" height="1.23"/><path d="M146.67,150.23h6v-6.09h-6Zm1.23-4.86h3.56V149H147.9Z"/><polygon points="153.93 142.97 153.93 139.27 147.9 139.27 147.9 138.11 151.53 138.11 151.53 136.88 146.67 136.88 146.67 139.34 147.84 139.34 147.84 141.74 146.67 141.74 146.67 142.97 147.9 142.97 147.9 141.74 149.07 141.74 149.07 142.97 150.3 142.97 150.3 141.74 149.07 141.74 149.07 140.51 152.7 140.51 152.7 142.97 153.93 142.97"/><rect x="146.67" y="133.25" width="2.4" height="2.46"/><path d="M152.7,126h-6v6.09h6Zm-1.24,4.86H147.9v-3.63h3.56Z"/><path d="M142.77,128.41a.78.78,0,0,1-.78-.78v-5.48a.78.78,0,0,1,.78-.78h5.48a.78.78,0,0,1,0,1.55h-4.7v4.7A.78.78,0,0,1,142.77,128.41Z" fill="#1ba3ff"/><path d="M174.75,128.34a.78.78,0,0,1-.78-.78V122.8h-4.7a.78.78,0,0,1,0-1.55h5.48a.78.78,0,0,1,.78.78v5.55A.78.78,0,0,1,174.75,128.34Z" fill="#1ba3ff"/><path d="M148.25,154.91h-5.48a.78.78,0,0,1-.78-.78v-5.55a.78.78,0,1,1,1.55,0v4.77h4.7a.78.78,0,0,1,0,1.55Z" fill="#1ba3ff"/><path d="M174.75,155h-5.48a.78.78,0,0,1,0-1.55H174v-4.7a.78.78,0,1,1,1.55,0v5.48A.78.78,0,0,1,174.75,155Z" fill="#1ba3ff"/><path d="M162.83,164.61H142.16a2.43,2.43,0,0,1-2.4-2.4h0a2.43,2.43,0,0,1,2.4-2.4h20.47Z" fill="#1ba3ff"/><path d="M162.63,159.82h11a2.43,2.43,0,0,1,2.4,2.4h0a2.43,2.43,0,0,1-2.4,2.4H162.76Z" fill="#6bd6f7"/><path d="M188.85,149.41c1.78,1.85,1.92,4.66.27,6.16l-15,14.17c-1.57,1.51-4.38,1.23-6.09-.68h0c-1.78-1.85-1.92-4.66-.27-6.16l15-14.17C184.33,147.22,187.07,147.49,188.85,149.41Z" fill="#f4be92"/><path d="M188.78,161.94c1.78,1.85,1.92,4.66.27,6.16l-15,14.17c-1.57,1.51-4.38,1.23-6.09-.68h0c-1.78-1.85-1.92-4.66-.27-6.16l15-14.17C184.26,159.75,187,160.09,188.78,161.94Z" fill="#f4be92"/><path d="M186.66,175.91c1.78,1.85,2.33,4.24,1.23,5.27L177.48,191c-1.1,1-3.42.34-5.2-1.51h0c-1.78-1.85-2.33-4.24-1.23-5.27l10.34-9.79c1.16-1.1,3.49-.41,5.27,1.44Z" fill="#f4be92"/><path d="M188,150.85a11.15,11.15,0,0,1-2.05,4.59,25,25,0,0,1-3.29,3.83c-.62.62-1.23,1.16-1.85,1.71l-2,1.57L176.73,164c-.75.41-1.44.89-2.19,1.23.62-.55,1.23-1.1,1.92-1.64l1.92-1.64c1.23-1.1,2.46-2.19,3.63-3.35a33.44,33.44,0,0,0,3.35-3.63A16.77,16.77,0,0,0,188,150.85Z" fill="#d39871"/><path d="M188.44,163.58a7.69,7.69,0,0,1-.89,2.67,17.56,17.56,0,0,1-1.51,2.4,35.83,35.83,0,0,1-3.7,4.18l-2.05,1.85c-.75.55-1.44,1.23-2.19,1.71L175.84,178l-2.33,1.51,2.06-1.86,2.05-1.85c1.37-1.23,2.74-2.46,4-3.7s2.6-2.6,3.77-4a25.76,25.76,0,0,0,1.71-2.12A9.49,9.49,0,0,0,188.44,163.58Z" fill="#d39871"/><path d="M186.45,179.05a23.31,23.31,0,0,1-1.92,3.08,29.83,29.83,0,0,1-2.4,2.74,23,23,0,0,1-2.81,2.33,13,13,0,0,1-3.21,1.64c1-.75,1.85-1.51,2.74-2.26l2.6-2.4C183.1,182.48,184.74,180.77,186.45,179.05Z" fill="#d39871"/><path d="M200.28,263.14c-11,.68-21.84,10.07-27.39,15.61-2.12-4.11-5.41-10-7.46-11-2.94-1.44-22.46-24.58-22.18-36.84a7.44,7.44,0,0,1,.69-3.29s.48-2.46,1.37-5.34c0-.07.07-.14.07-.27,1.23-4,3.22-8.7,5.82-9.38V174.06a5.91,5.91,0,0,1,6-5.82h0a5.84,5.84,0,0,1,1.57.21,6.46,6.46,0,0,1,2.67,1.51,5.69,5.69,0,0,1,1.78,4.11v26.36a3.88,3.88,0,0,1,3.08-2.94h0a6.33,6.33,0,0,1,2-.27,7,7,0,0,1,3.56,1h.07a3,3,0,0,1,1.51,2.46v6.09c0-1.92,2.26-3.49,5.13-3.49a6.67,6.67,0,0,1,3.63,1,3,3,0,0,1,1.51,2.46v7.94c.27-1.78,2.4-3.08,5.07-3.08a6.67,6.67,0,0,1,3.63,1,3.14,3.14,0,0,1,1.51,2.46v32.11C193.85,249.58,197.2,257,200.28,263.14Z" fill="#f4be92"/><path d="M245.68,341.81l-44-2.74L191,327l-21.91-44.23s1.37-1.64,3.77-4h0c5.55-5.55,16.43-14.93,27.39-15.61a17.59,17.59,0,0,1,5,.34l7.8,19.31Z" fill="#1ba3ff"/><path d="M151.12,212.6c.07,2.05,0,4.11-.07,6.16s-.21,4.11-.27,6.09l-.34,6.09a45.24,45.24,0,0,0,0,6.09,15.24,15.24,0,0,1-.89-3c-.07-.48-.14-1-.21-1.57s-.07-1-.14-1.57c-.14-2.05-.07-4.11,0-6.16s.34-4.11.62-6.16S150.57,214.59,151.12,212.6Z" fill="#d39871"/><path d="M163.72,212.6a25.23,25.23,0,0,1-.75-3.08c-.14-1-.27-2.05-.34-3.15a24.17,24.17,0,0,1,0-3.15,16.7,16.7,0,0,1,.48-3.15,25.23,25.23,0,0,1,.75,3.08,23.43,23.43,0,0,1,.27,3.15,24.17,24.17,0,0,1,0,3.15A12,12,0,0,1,163.72,212.6Z" fill="#d39871"/><path d="M173.38,205.89a5.14,5.14,0,0,1,.62,1.71,7,7,0,0,1,.14,1.71A15.65,15.65,0,0,1,174,211a6.5,6.5,0,0,1-.62,1.71,5.14,5.14,0,0,1-.62-1.71,7,7,0,0,1-.14-1.71,15.65,15.65,0,0,1,.14-1.71A7.29,7.29,0,0,1,173.38,205.89Z" fill="#d39871"/><path d="M183.65,214.73a5.6,5.6,0,0,1,.68,1.64,14,14,0,0,1,.34,1.64,13.29,13.29,0,0,1,.14,1.64,14.89,14.89,0,0,0,.07,1.71,2.81,2.81,0,0,1-1.23-1.44,5.36,5.36,0,0,1-.48-1.71,7.74,7.74,0,0,1,0-1.78A5.36,5.36,0,0,1,183.65,214.73Z" fill="#d39871"/></g></svg>