<svg xmlns="http://www.w3.org/2000/svg" xmlns:xlink="http://www.w3.org/1999/xlink" viewBox="0 0 272.517 213.98"><defs><style>.a{fill:#f0f6ff;}.ad,.b,.q{fill:#fff;}.c{fill:rgba(216,228,243,0.6);}.d{clip-path:url(#g);}.e{fill:#6d89a9;}.f{fill:#19426f;}.g{clip-path:url(#n);}.h{fill:#e6e6e6;}.i{fill:#0589db;}.j{fill:#f2f2f2;opacity:0.1;}.k{fill:#99d871;}.l{fill:#4d4d4d;opacity:0.15;}.m,.n{fill:#395e86;}.m{opacity:0.25;}.o{fill:#5874a5;}.p{fill:#31455e;}.q,.u{opacity:0.05;}.r{fill:#7294c4;}.s{fill:#496184;}.t{fill:#aa1b1b;}.v{fill:#bc3744;}.w{fill:#f24949;}.x{fill:#a31f32;}.y{fill:#5d9645;}.z{fill:#73ad59;}.aa{clip-path:url(#q);}.ab{fill:none;}.ac{fill:rgba(57,94,134,0.4);}.ad{font-size:11px;font-family:Archivo-SemiBold, Archivo;font-weight:600;letter-spacing:0.05em;}.ae{fill:#5e7997;}.af{fill:#89a9cd;}.ag{fill:#409afd;}.ah,.ai{stroke:none;}.ai{fill:#c4d0e2;}.aj{filter:url(#bb);}.ak{filter:url(#az);}.al{filter:url(#ax);}.am{filter:url(#av);}.an{filter:url(#at);}.ao{filter:url(#ar);}.ap{filter:url(#ap);}.aq{filter:url(#an);}.ar{filter:url(#al);}.as{filter:url(#aj);}.at{filter:url(#ah);}.au{filter:url(#af);}.av{filter:url(#ad);}.aw{filter:url(#ab);}.ax{filter:url(#z);}.ay{filter:url(#x);}.az{filter:url(#v);}.ba{filter:url(#t);}.bb{filter:url(#r);}.bc{filter:url(#o);}.bd{filter:url(#l);}.be{filter:url(#j);}.bf{filter:url(#h);}.bg{filter:url(#e);}.bh{filter:url(#c);}.bi{filter:url(#a);}</style><filter id="a" x="0" y="0" width="142.305" height="199.684" filterUnits="userSpaceOnUse"><feOffset dx="2.364" dy="1.847" input="SourceAlpha"/><feGaussianBlur stdDeviation="3.5" result="b"/><feFlood flood-color="#eee" flood-opacity="0.2"/><feComposite operator="in" in2="b"/><feComposite in="SourceGraphic"/></filter><filter id="c" x="12.319" y="85.021" width="117.87" height="95.163" filterUnits="userSpaceOnUse"><feOffset dx="2.364" dy="1.847" input="SourceAlpha"/><feGaussianBlur stdDeviation="3.5" result="d"/><feFlood flood-color="#eee" flood-opacity="0.2"/><feComposite operator="in" in2="d"/><feComposite in="SourceGraphic"/></filter><filter id="e" x="0" y="0" width="142.305" height="199" filterUnits="userSpaceOnUse"><feOffset dx="2.364" dy="1.847" input="SourceAlpha"/><feGaussianBlur stdDeviation="3.5" result="f"/><feFlood flood-color="#eee" flood-opacity="0.2"/><feComposite operator="in" in2="f"/><feComposite in="SourceGraphic"/></filter><clipPath id="g"><g class="bi" transform="matrix(1, 0, 0, 1, 0, 0)"><path class="a" d="M1227.856,854.317l115.021.189a3.041,3.041,0,0,1,3.048,3.031l-.183,172.444a3.035,3.035,0,0,1-3.054,3.02l-115.021-.188a3.041,3.041,0,0,1-3.048-3.031l.182-172.444A3.037,3.037,0,0,1,1227.856,854.317Z"/></g></clipPath><filter id="h" x="-2.648" y="-8.84" width="154.037" height="41.352" filterUnits="userSpaceOnUse"><feOffset dx="2.364" dy="1.847" input="SourceAlpha"/><feGaussianBlur stdDeviation="3.5" result="i"/><feFlood flood-color="#eee" flood-opacity="0.2"/><feComposite operator="in" in2="i"/><feComposite in="SourceGraphic"/></filter><filter id="j" x="6.723" y="3.761" width="24.969" height="24.927" filterUnits="userSpaceOnUse"><feOffset dx="2.364" dy="1.847" input="SourceAlpha"/><feGaussianBlur stdDeviation="3.5" result="k"/><feFlood flood-color="#eee" flood-opacity="0.2"/><feComposite operator="in" in2="k"/><feComposite in="SourceGraphic"/></filter><filter id="l" x="14.05" y="3.773" width="24.969" height="24.927" filterUnits="userSpaceOnUse"><feOffset dx="2.364" dy="1.847" input="SourceAlpha"/><feGaussianBlur stdDeviation="3.5" result="m"/><feFlood flood-color="#eee" flood-opacity="0.2"/><feComposite operator="in" in2="m"/><feComposite in="SourceGraphic"/></filter><clipPath id="n"><rect class="b" width="264" height="178" rx="5" transform="translate(1281 1236)"/></clipPath><filter id="o" x="12.319" y="85.021" width="117.87" height="95.163" filterUnits="userSpaceOnUse"><feOffset dx="2.364" dy="1.847" input="SourceAlpha"/><feGaussianBlur stdDeviation="3.5" result="p"/><feFlood flood-color="#eee" flood-opacity="0.2"/><feComposite operator="in" in2="p"/><feComposite in="SourceGraphic"/></filter><clipPath id="q"><g class="bh" transform="matrix(1, 0, 0, 1, 0, 0)"><path class="c" d="M1237.037,939.338l96.772.159-.1,74-96.771-.159Z"/></g></clipPath><filter id="r" x="0.191" y="96.177" width="143.11" height="21.804" filterUnits="userSpaceOnUse"><feOffset dx="2.364" dy="1.847" input="SourceAlpha"/><feGaussianBlur stdDeviation="3.5" result="s"/><feFlood flood-color="#eee" flood-opacity="0.2"/><feComposite operator="in" in2="s"/><feComposite in="SourceGraphic"/></filter><filter id="t" x="0.168" y="113.394" width="143.11" height="21.804" filterUnits="userSpaceOnUse"><feOffset dx="2.364" dy="1.847" input="SourceAlpha"/><feGaussianBlur stdDeviation="3.5" result="u"/><feFlood flood-color="#eee" flood-opacity="0.2"/><feComposite operator="in" in2="u"/><feComposite in="SourceGraphic"/></filter><filter id="v" x="0.145" y="130.914" width="143.11" height="21.804" filterUnits="userSpaceOnUse"><feOffset dx="2.364" dy="1.847" input="SourceAlpha"/><feGaussianBlur stdDeviation="3.5" result="w"/><feFlood flood-color="#eee" flood-opacity="0.2"/><feComposite operator="in" in2="w"/><feComposite in="SourceGraphic"/></filter><filter id="x" x="0.122" y="148.131" width="143.11" height="21.804" filterUnits="userSpaceOnUse"><feOffset dx="2.364" dy="1.847" input="SourceAlpha"/><feGaussianBlur stdDeviation="3.5" result="y"/><feFlood flood-color="#eee" flood-opacity="0.2"/><feComposite operator="in" in2="y"/><feComposite in="SourceGraphic"/></filter><filter id="z" x="90.138" y="57.359" width="21.771" height="141.825" filterUnits="userSpaceOnUse"><feOffset dx="2.364" dy="1.847" input="SourceAlpha"/><feGaussianBlur stdDeviation="3.5" result="aa"/><feFlood flood-color="#eee" flood-opacity="0.2"/><feComposite operator="in" in2="aa"/><feComposite in="SourceGraphic"/></filter><filter id="ab" x="69.38" y="57.324" width="21.772" height="141.825" filterUnits="userSpaceOnUse"><feOffset dx="2.364" dy="1.847" input="SourceAlpha"/><feGaussianBlur stdDeviation="3.5" result="ac"/><feFlood flood-color="#eee" flood-opacity="0.2"/><feComposite operator="in" in2="ac"/><feComposite in="SourceGraphic"/></filter><filter id="ad" x="48.316" y="57.29" width="21.772" height="141.825" filterUnits="userSpaceOnUse"><feOffset dx="2.364" dy="1.847" input="SourceAlpha"/><feGaussianBlur stdDeviation="3.5" result="ae"/><feFlood flood-color="#eee" flood-opacity="0.2"/><feComposite operator="in" in2="ae"/><feComposite in="SourceGraphic"/></filter><filter id="af" x="27.558" y="57.257" width="21.771" height="141.825" filterUnits="userSpaceOnUse"><feOffset dx="2.364" dy="1.847" input="SourceAlpha"/><feGaussianBlur stdDeviation="3.5" result="ag"/><feFlood flood-color="#eee" flood-opacity="0.2"/><feComposite operator="in" in2="ag"/><feComposite in="SourceGraphic"/></filter><filter id="ah" x="58.678" y="97.429" width="52.728" height="51.788" filterUnits="userSpaceOnUse"><feOffset dx="2.364" dy="1.847" input="SourceAlpha"/><feGaussianBlur stdDeviation="3.5" result="ai"/><feFlood flood-color="#eee" flood-opacity="0.2"/><feComposite operator="in" in2="ai"/><feComposite in="SourceGraphic"/></filter><filter id="aj" x="60.782" y="92.331" width="53.564" height="52.605" filterUnits="userSpaceOnUse"><feOffset dx="2.364" dy="1.847" input="SourceAlpha"/><feGaussianBlur stdDeviation="3.5" result="ak"/><feFlood flood-color="#eee" flood-opacity="0.2"/><feComposite operator="in" in2="ak"/><feComposite in="SourceGraphic"/></filter><filter id="al" x="2.739" y="20.607" width="135.291" height="75.364" filterUnits="userSpaceOnUse"><feOffset dx="3.152" dy="2.463" input="SourceAlpha"/><feGaussianBlur stdDeviation="4.5" result="am"/><feFlood flood-color="#375f8c" flood-opacity="0.329"/><feComposite operator="in" in2="am"/><feComposite in="SourceGraphic"/></filter><filter id="an" x="14.4" y="166.167" width="71.188" height="31.137" filterUnits="userSpaceOnUse"><feOffset dx="2.364" dy="1.847" input="SourceAlpha"/><feGaussianBlur stdDeviation="3.5" result="ao"/><feFlood flood-color="#eee" flood-opacity="0.2"/><feComposite operator="in" in2="ao"/><feComposite in="SourceGraphic"/></filter><filter id="ap" x="14.735" y="173.36" width="46.094" height="40.62" filterUnits="userSpaceOnUse"><feOffset dx="2.364" dy="1.847" input="SourceAlpha"/><feGaussianBlur stdDeviation="3.5" result="aq"/><feFlood flood-color="#eee" flood-opacity="0.2"/><feComposite operator="in" in2="aq"/><feComposite in="SourceGraphic"/></filter><filter id="ar" x="39.829" y="167.474" width="45.759" height="46.506" filterUnits="userSpaceOnUse"><feOffset dx="2.364" dy="1.847" input="SourceAlpha"/><feGaussianBlur stdDeviation="3.5" result="as"/><feFlood flood-color="#eee" flood-opacity="0.2"/><feComposite operator="in" in2="as"/><feComposite in="SourceGraphic"/></filter><filter id="at" x="34.151" y="136.378" width="35.064" height="55.878" filterUnits="userSpaceOnUse"><feOffset dx="2.364" dy="1.847" input="SourceAlpha"/><feGaussianBlur stdDeviation="3.5" result="au"/><feFlood flood-color="#eee" flood-opacity="0.2"/><feComposite operator="in" in2="au"/><feComposite in="SourceGraphic"/></filter><filter id="av" x="50.467" y="116.982" width="36.198" height="29.758" filterUnits="userSpaceOnUse"><feOffset dx="2.364" dy="1.847" input="SourceAlpha"/><feGaussianBlur stdDeviation="3.5" result="aw"/><feFlood flood-color="#eee" flood-opacity="0.2"/><feComposite operator="in" in2="aw"/><feComposite in="SourceGraphic"/></filter><filter id="ax" x="34.304" y="114.992" width="40.439" height="47.359" filterUnits="userSpaceOnUse"><feOffset dx="2.364" dy="1.847" input="SourceAlpha"/><feGaussianBlur stdDeviation="3.5" result="ay"/><feFlood flood-color="#eee" flood-opacity="0.2"/><feComposite operator="in" in2="ay"/><feComposite in="SourceGraphic"/></filter><filter id="az" x="39.534" y="107.036" width="27.067" height="29.952" filterUnits="userSpaceOnUse"><feOffset dx="2.364" dy="1.847" input="SourceAlpha"/><feGaussianBlur stdDeviation="3.5" result="ba"/><feFlood flood-color="#eee" flood-opacity="0.2"/><feComposite operator="in" in2="ba"/><feComposite in="SourceGraphic"/></filter><filter id="bb" x="36.94" y="104.261" width="28.679" height="29.771" filterUnits="userSpaceOnUse"><feOffset dx="2.364" dy="1.847" input="SourceAlpha"/><feGaussianBlur stdDeviation="3.5" result="bc"/><feFlood flood-color="#eee" flood-opacity="0.2"/><feComposite operator="in" in2="bc"/><feComposite in="SourceGraphic"/></filter></defs><g transform="translate(-1272.483 -1194.664)"><g transform="translate(56 349)"><g class="bg" transform="matrix(1, 0, 0, 1, 1216.48, 845.66)"><path class="a" d="M1227.856,854.317l115.021.188a3.035,3.035,0,0,1,3.048,3.019l-.183,171.784a3.029,3.029,0,0,1-3.054,3.009l-115.021-.187a3.035,3.035,0,0,1-3.048-3.019l.182-171.785A3.031,3.031,0,0,1,1227.856,854.317Z" transform="translate(-1216.48 -845.66)"/></g><g class="d"><g class="bf" transform="matrix(1, 0, 0, 1, 1216.48, 845.66)"><path class="e" d="M1211.527,837.5l133,.169-.034,20.182-133-.169Z" transform="translate(-1206 -837.69)"/></g><g class="be" transform="matrix(1, 0, 0, 1, 1216.48, 845.66)"><path class="b" d="M1233.329,858.078a1.963,1.963,0,1,1-1.987,1.96A1.975,1.975,0,0,1,1233.329,858.078Z" transform="translate(-1216.48 -845.66)"/></g><g class="bd" transform="matrix(1, 0, 0, 1, 1216.48, 845.66)"><path class="f" d="M1240.656,858.089a1.963,1.963,0,1,1-1.987,1.96A1.975,1.975,0,0,1,1240.656,858.089Z" transform="translate(-1216.48 -845.66)"/></g></g></g><g class="g" transform="translate(0 -32)"><g transform="translate(1366.926 1236.1)"><rect class="h" width="149.955" height="177.955" transform="translate(28 -0.078)"/><path class="i" d="M580.964,446.3a4.462,4.462,0,0,0-4.449,4.449v32.165a4.462,4.462,0,0,0,4.449,4.449h1.112a4.462,4.462,0,0,1,4.449,4.449v5.25a4.462,4.462,0,0,1-4.449,4.449H565.949a4.462,4.462,0,0,0-4.449,4.449v19.019h2.269V508.3a4.462,4.462,0,0,1,4.449-4.449h0a4.462,4.462,0,0,0-4.449,4.449v16.683h50.784V446.3Zm7.83,53.1a4.462,4.462,0,0,1-4.449,4.449h0a4.476,4.476,0,0,0,4.449-4.449V488.9a4.462,4.462,0,0,0-4.449-4.449h0a4.462,4.462,0,0,1,4.449,4.449Zm-5.561-14.948h0A4.462,4.462,0,0,1,578.784,480V452.973a4.462,4.462,0,0,1,4.449-4.449h0a4.462,4.462,0,0,0-4.449,4.449v27.049A4.443,4.443,0,0,0,583.233,484.449Z" transform="translate(-436.597 -347.101)"/><path class="j" d="M586.715,460.749V487.8a4.462,4.462,0,0,0,4.449,4.449h1.112a4.462,4.462,0,0,1,4.449,4.449v10.477a4.462,4.462,0,0,1-4.449,4.449H576.149a4.462,4.462,0,0,0-4.449,4.449v16.683h50.784V456.3h-31.32A4.462,4.462,0,0,0,586.715,460.749Z" transform="translate(-444.529 -354.876)"/><path class="b" d="M18.619,215.6H0v3.337H18.908C18.819,217.824,18.73,216.712,18.619,215.6Z" transform="translate(0 -167.719)"/><path class="k" d="M371.478,241.326l35.458.089a4.462,4.462,0,0,0,4.449-4.449V207.515c0-2.447-1.513-3.136-3.381-1.535l-37.615,32.432C368.542,240.014,369.031,241.326,371.478,241.326Z" transform="translate(-287.127 -159.567)"/><path class="h" d="M277.944,178.3H255.9c.534,2.736.934,5.494,1.246,8.275h20.8Z" transform="translate(-198.976 -138.716)"/><path class="h" d="M272.643,240.1H263.3c.111,2.758.111,5.517.022,8.275h9.32Z" transform="translate(-204.73 -186.769)"/><path class="l" d="M272.643,240.1H263.3c.111,2.758.111,5.517.022,8.275h9.32Z" transform="translate(-204.73 -186.769)"/><path class="h" d="M268.6,298h-9.587c-.222,2.758-.512,5.517-.912,8.275h10.5Z" transform="translate(-200.687 -231.789)"/><path class="l" d="M268.6,298h-9.587c-.222,2.758-.512,5.517-.912,8.275h10.5Z" transform="translate(-200.687 -231.789)"/><g transform="translate(49.872 123.245)"><path class="k" d="M228.894,577.334h20.42a4.68,4.68,0,0,0,4.694-4.694V559.094a4.68,4.68,0,0,0-4.694-4.694h-20.42a4.68,4.68,0,0,0-4.694,4.694V572.64A4.68,4.68,0,0,0,228.894,577.334Z" transform="translate(-224.2 -554.4)"/><path class="k" d="M301.422,667.7h-6.073a4.148,4.148,0,1,0,0,8.275h6.073a4.148,4.148,0,1,0,0-8.275Z" transform="translate(-276.063 -642.497)"/><path class="k" d="M231.274,667.7h-2.625a4.148,4.148,0,1,0,0,8.275h2.625a4.148,4.148,0,1,0,0-8.275Z" transform="translate(-224.2 -642.497)"/></g><g transform="translate(0 -0.078)"><rect class="l" width="22.133" height="8.275" transform="translate(104.883 94.695)"/><rect class="l" width="9.076" height="8.275" transform="translate(72.428 53.409)"/><path class="l" d="M378.8,186.553h12.524l9.61-8.253H378.8Z" transform="translate(-294.538 -138.638)"/><rect class="l" width="22.133" height="8.275" transform="translate(104.883 105.817)"/><rect class="l" width="22.133" height="19.397" transform="translate(78.701 94.695)"/><rect class="l" width="22.133" height="18.997" transform="translate(138.894)"/><rect class="l" width="14.125" height="18.997" transform="translate(163.83)"/><rect class="l" width="17.684" height="19.397" transform="translate(55.834 94.695)"/><rect class="l" width="22.133" height="8.275" transform="translate(55.834 10.722)"/><rect class="l" width="22.133" height="7.875" transform="translate(55.834)"/><rect class="l" width="39.061" height="8.275" transform="translate(138.894 43.132)"/><rect class="l" width="16.594" height="8.275" transform="translate(138.894 56.189)"/><rect class="l" width="17.773" height="8.275" transform="translate(160.182 56.189)"/><rect class="l" width="16.594" height="8.275" transform="translate(138.894 68.735)"/><rect class="l" width="17.773" height="8.275" transform="translate(160.182 68.735)"/><rect class="l" width="39.061" height="8.275" transform="translate(138.894 32.01)"/><rect class="l" width="22.133" height="18.997" transform="translate(82.015)"/><rect class="l" width="17.684" height="18.997" transform="translate(109.331)"/><rect class="l" width="16.105" height="20.598" transform="translate(90.068 123.345)"/><rect class="l" width="22.133" height="8.275" transform="translate(90.068 148.081)"/><rect class="l" width="16.105" height="20.598" transform="translate(111.066 123.345)"/></g><circle class="k" cx="2.892" cy="2.892" r="2.892" transform="translate(139.695 144.578)"/><g transform="translate(139.695 89.412)"><circle class="k" cx="2.892" cy="2.892" r="2.892"/><circle class="k" cx="2.892" cy="2.892" r="2.892" transform="translate(14.236)"/><circle class="k" cx="2.892" cy="2.892" r="2.892" transform="translate(28.473)"/></g><g transform="translate(56.857 29.974)"><circle class="k" cx="2.625" cy="2.625" r="2.625" transform="translate(25.893)"/><circle class="k" cx="2.625" cy="2.625" r="2.625" transform="translate(38.861)"/><circle class="k" cx="2.625" cy="2.625" r="2.625" transform="translate(51.807)"/><circle class="k" cx="2.625" cy="2.625" r="2.625" transform="translate(12.946)"/><circle class="k" cx="2.625" cy="2.625" r="2.625"/></g><path class="b" d="M311.229,26.271V22.934H266.762V0h-.89V22.934H180.9l.289.779c.311.845.623,1.691.912,2.558h80.925L192.243,87.309h-8.52c-.267,1.112-.534,2.224-.823,3.337h82.616v27.138H180.164l-.356,1.557h37.66v41.13H178.429v-41.13h1.357l.356-1.557h-1.713V106.662c-.133.445-.267.868-.378,1.312-.178.578-.334,1.157-.512,1.735v50.784H171.4c.067.667.156,1.335.245,2h13.08v15.46h.89V162.473h65.443v15.482h1.557V154.577a3.674,3.674,0,0,1,3.67-3.67h5.583a5.221,5.221,0,0,0,5.227-5.227V85.752h44.133v-4H267.1V26.271Zm-45.69,119.408a3.674,3.674,0,0,1-3.67,3.67h-5.583a5.221,5.221,0,0,0-5.227,5.227v5.917h-32.7V119.341h47.18Zm0-58.369H194.979l70.559-60.861Z" transform="translate(-133.273 -0.078)"/><path class="h" d="M255.5,178.3v8.275h1.312c-.289-2.781-.69-5.539-1.246-8.275Z" transform="translate(-198.665 -138.716)"/><path class="l" d="M255.589,178.3H255.5v8.253h22.133V178.3Z" transform="translate(-198.665 -138.716)"/><path class="h" d="M257.235,240.1H255.5v8.275h1.757C257.369,245.617,257.346,242.858,257.235,240.1Z" transform="translate(-198.665 -186.769)"/><path class="l" d="M257.235,240.1H255.5v8.275h1.757C257.369,245.617,257.346,242.858,257.235,240.1Z" transform="translate(-198.665 -186.769)"/><path class="h" d="M255.5,298v8.275h.556c.4-2.736.712-5.494.912-8.275Z" transform="translate(-198.665 -231.789)"/><path class="l" d="M255.5,298v8.275h.556c.4-2.736.712-5.494.912-8.275Z" transform="translate(-198.665 -231.789)"/><g transform="translate(35.769 -0.1)"><path class="m" d="M177.038,730.5H172.5c.111.734.2,1.49.334,2.224a102.636,102.636,0,0,0,3.025,13.169l-.222.067h4.471l.267-.067a106.18,106.18,0,0,1-3.025-13.146C177.283,732.346,177.149,731.39,177.038,730.5Z" transform="translate(-169.897 -567.982)"/><path class="m" d="M181.888,61.606h1.735c.089-2.758.089-5.517-.022-8.275h0c-.022-.69-.067-1.379-.111-2.069-.067-1.134-.178-2.291-.289-3.426h0c-.289-2.781-.69-5.539-1.246-8.275h0a103.347,103.347,0,0,0-3.581-13.391h0c-.289-.845-1.09-3.07-1.2-3.337A108.261,108.261,0,0,0,165.316-.1H160.8a108.263,108.263,0,0,1,11.856,22.934l.289.779c.311.845.623,1.691.912,2.558h0a97.55,97.55,0,0,1,5.116,25.069,116.233,116.233,0,0,1-1.958,28.718c-.445,2.425-.957,4.849-1.535,7.229h0c-.267,1.112-.534,2.224-.823,3.337-1.357,5.361-2.914,10.7-4.471,16.016v11.122h0V106.54c-.133.445-.267.868-.378,1.312-.178.578-.334,1.157-.512,1.735v.022a178.628,178.628,0,0,0-5.895,26.382,101.6,101.6,0,0,0-.267,24.38c.067.667.156,1.335.245,2h4.538c-.111-.845-.222-1.668-.267-2a99.334,99.334,0,0,1,.267-24.38c.111-.845.645-3.448,1.379-6.762v-.022c.289-1.246.578-2.58.89-3.982.445-1.958.912-4,1.357-5.984l.356-1.557h0c1.068-4.6,2.046-8.564,2.4-9.81,1.691-5.761,3.4-11.5,4.872-17.328.289-1.112.556-2.224.823-3.337h0c.556-2.4,1.068-4.8,1.535-7.229.334-1.824.645-3.67.912-5.517h0c.4-2.736.712-5.494.912-8.275h0c.111-1.535.2-3.047.267-4.582Z" transform="translate(-160.8 0.1)"/></g><path class="h" d="M114.7,799.8h0l13.48.022h0Z" transform="translate(-89.186 -621.967)"/><path class="m" d="M114.7,799.8h0l13.48.022h0Z" transform="translate(-89.186 -621.967)"/><path class="h" d="M17.728,357.271A102.638,102.638,0,0,1,14.7,344.1a98.775,98.775,0,0,1-.311-28.629A182.651,182.651,0,0,1,20.8,287.334a271.012,271.012,0,0,0,7.163-27.872,117.317,117.317,0,0,0,1.958-28.718V230.7h-2.4v.044a117.391,117.391,0,0,1-1.958,28.718c-1.735,9.476-4.493,18.663-7.207,27.895a184.4,184.4,0,0,0-6.406,28.117,99.574,99.574,0,0,0,.334,28.629,106.444,106.444,0,0,0,3,13.169h2.447Z" transform="translate(-8.607 -179.46)"/><path class="h" d="M64.491,799.722,51.122,799.7H51.1l13.391.022Z" transform="translate(-39.733 -621.889)"/><path class="m" d="M64.491,799.722,51.122,799.7H51.1l13.391.022Z" transform="translate(-39.733 -621.889)"/><path class="h" d="M21.185,47.959h2.425A99.761,99.761,0,0,0,17.87,23.713,110.507,110.507,0,0,0,5.725,0H3.3A110.591,110.591,0,0,1,15.468,23.713,100.76,100.76,0,0,1,21.185,47.959Z" transform="translate(-2.566 -0.078)"/><path class="b" d="M86.125,215.6H83.7c.111,1.112.2,2.224.289,3.337h2.425C86.325,217.824,86.236,216.712,86.125,215.6Z" transform="translate(-65.081 -167.719)"/><g transform="translate(0.734 -0.078)"><path class="m" d="M15.445,23.713A110.507,110.507,0,0,0,3.3,0H5.725A110.507,110.507,0,0,1,17.87,23.713a99.761,99.761,0,0,1,5.739,24.246c.111,1.112.2,2.224.289,3.337H21.474c-.067-1.112-.178-2.224-.289-3.337A99.761,99.761,0,0,0,15.445,23.713Z" transform="translate(-3.3)"/><path class="m" d="M27.96,259.462a271.529,271.529,0,0,1-7.185,27.895,181.728,181.728,0,0,0-6.384,28.117A100.373,100.373,0,0,0,14.7,344.1a106.52,106.52,0,0,0,3.025,13.169H15.281a102.563,102.563,0,0,1-3-13.169,99.564,99.564,0,0,1-.334-28.629,182.063,182.063,0,0,1,6.406-28.139c2.714-9.209,5.45-18.4,7.207-27.872a117.391,117.391,0,0,0,1.958-28.718V230.7h2.4v.044A117.317,117.317,0,0,1,27.96,259.462Z" transform="translate(-9.341 -179.382)"/></g><path class="n" d="M164.456,23.6q.5,1.335.934,2.669a98.3,98.3,0,0,1,5.094,25.047,115.034,115.034,0,0,1-1.958,28.807c-.445,2.4-.957,4.8-1.513,7.185l-.8,3.337c-.756,2.959-1.557,5.895-2.38,8.809-.289,1.046-.6,2.069-.89,3.114-.489,1.691-.979,3.359-1.468,5.027l-.133.467a184.909,184.909,0,0,0-6.384,28.072,100.087,100.087,0,0,0-.245,24.335c.067.667.156,1.335.245,2,.089.734.2,1.446.311,2.18a102.846,102.846,0,0,0,3.025,13.124l-.311.089-.2.067h2.4l.222-.067a106.518,106.518,0,0,1-3.025-13.169c-.111-.734-.222-1.49-.334-2.224-.089-.667-.178-1.335-.245-2a100.441,100.441,0,0,1,.245-24.38,176.119,176.119,0,0,1,5.895-26.4c.178-.578.334-1.157.512-1.735.133-.445.245-.868.378-1.312,1.557-5.316,3.114-10.633,4.471-16.016q.434-1.668.8-3.337c.556-2.4,1.068-4.8,1.535-7.229A116.233,116.233,0,0,0,172.6,51.34a97.551,97.551,0,0,0-5.116-25.069c-.289-.845-.6-1.713-.912-2.558l-.289-.779A108.262,108.262,0,0,0,154.424,0H152.6a107.891,107.891,0,0,1,11.589,22.934Z" transform="translate(-118.655 -0.078)"/><path class="n" d="M32.085,47.959c.111,1.112.2,2.224.289,3.337v.044a116.485,116.485,0,0,1-1.958,28.74,280.317,280.317,0,0,1-7.185,27.895,184.676,184.676,0,0,0-6.406,28.139,100.373,100.373,0,0,0,.311,28.629,106.52,106.52,0,0,0,3.025,13.169h2a102.762,102.762,0,0,1-3-13.124,100.181,100.181,0,0,1-.334-28.718,182.012,182.012,0,0,1,6.384-28.184l.133-.467A271.711,271.711,0,0,0,32.4,80.013a114.806,114.806,0,0,0,1.958-28.651V51.3c-.067-1.112-.178-2.224-.289-3.337a98.858,98.858,0,0,0-5.717-24.135A109.074,109.074,0,0,0,16.135,0H14.2A110.507,110.507,0,0,1,26.345,23.713,99.761,99.761,0,0,1,32.085,47.959Z" transform="translate(-11.041 -0.078)"/><path class="n" d="M71.634,51.385a97.881,97.881,0,0,0-5.116-25.114c-.289-.823-.578-1.624-.868-2.447l-.334-.89A107.5,107.5,0,0,0,53.638,0H41.159c.534.779,1.045,1.557,1.535,2.358l-1.424.912c-.712-1.112-1.424-2.2-2.158-3.27H26.3A110.975,110.975,0,0,1,38.379,23.6,99.64,99.64,0,0,1,44.14,47.959c.111,1.112.2,2.224.289,3.337a.616.616,0,0,0,.022.2l-.022-.156a115.034,115.034,0,0,1-1.958,28.807A279.158,279.158,0,0,1,35.4,107.619l-.133.467a184.906,184.906,0,0,0-6.384,28.072,99.59,99.59,0,0,0,.311,28.517A101.982,101.982,0,0,0,32.217,177.8l-.334.089,13.369.022c-.378-1.312-.756-2.625-1.09-3.915l1.646-.423c.334,1.335.712,2.714,1.112,4.071l-.934.289,13.48.022q-.968-3.237-1.735-6.54c-.512-2.2-.934-4.4-1.29-6.629-.111-.756-.222-1.513-.334-2.291-.089-.667-.178-1.335-.245-2a100.819,100.819,0,0,1,.267-24.424,187.22,187.22,0,0,1,6.406-28.184l.133-.467c.69-2.358,1.4-4.738,2.091-7.14.289-1.045.6-2.091.89-3.136q.9-3.237,1.735-6.473c.289-1.112.556-2.224.823-3.337.578-2.425,1.09-4.849,1.535-7.3A116.823,116.823,0,0,0,71.634,51.385Zm-34.256-37.1Z" transform="translate(-20.45 -0.078)"/><path class="b" d="M40.774,47.959c.111,1.112.2,2.224.289,3.337v.067a114.873,114.873,0,0,1-1.958,28.651,277.791,277.791,0,0,1-7.051,27.405l-.133.467a184.538,184.538,0,0,0-6.406,28.184,100.19,100.19,0,0,0,.334,28.718,106.685,106.685,0,0,0,3,13.124h0a.082.082,0,0,0,.022.067h.044l.222-.067h.022l.334-.089a102.763,102.763,0,0,1-3-13.124,98.957,98.957,0,0,1-.311-28.54,183.679,183.679,0,0,1,6.384-28.072l.133-.467a279.159,279.159,0,0,0,7.074-27.472A114.968,114.968,0,0,0,41.73,51.34v-.022c-.067-1.112-.178-2.224-.289-3.337A99.88,99.88,0,0,0,35.68,23.624,111.731,111.731,0,0,0,23.579,0H22.8A109.157,109.157,0,0,1,35.034,23.824,99.142,99.142,0,0,1,40.774,47.959Z" transform="translate(-17.728 -0.078)"/><path class="b" d="M161.212,23.824c.289.8.578,1.624.868,2.447a97.749,97.749,0,0,1,5.138,25.092,114.872,114.872,0,0,1-1.958,28.651c-.445,2.447-.979,4.872-1.535,7.3-.267,1.112-.534,2.224-.823,3.337q-.834,3.27-1.735,6.473c-.289,1.045-.6,2.091-.89,3.136-.69,2.4-1.4,4.783-2.091,7.14l-.133.489a185.15,185.15,0,0,0-6.406,28.184,101.957,101.957,0,0,0-.267,24.424c.067.667.156,1.335.245,2,.111.756.222,1.535.334,2.291a106.52,106.52,0,0,0,3.025,13.169h.111l.2-.067.311-.089a106.768,106.768,0,0,1-3.025-13.124c-.111-.734-.222-1.446-.311-2.18-.089-.667-.178-1.335-.245-2a101.217,101.217,0,0,1,.267-24.335,183.681,183.681,0,0,1,6.384-28.072l.133-.467c.489-1.668.979-3.337,1.468-5.027.289-1.045.6-2.069.89-3.114.823-2.914,1.646-5.85,2.38-8.809q.434-1.668.8-3.337c.556-2.38,1.068-4.783,1.513-7.185a114.969,114.969,0,0,0,1.958-28.807,98.465,98.465,0,0,0-5.094-25.069q-.434-1.335-.934-2.669c-.089-.222-.178-.445-.245-.667A106.862,106.862,0,0,0,149.956,0H149.2a107.5,107.5,0,0,1,11.678,22.934Z" transform="translate(-116.011 -0.078)"/><path class="b" d="M108.324,784.56l.934-.289c-.4-1.357-.779-2.714-1.112-4.071l-1.646.423c.334,1.29.69,2.6,1.09,3.915h0v.044h.6l.111-.022Z" transform="translate(-82.81 -606.727)"/><path class="b" d="M132.325,430.5c-.823,3-1.691,5.962-2.425,8.453l1.624.467c.734-2.491,1.6-5.472,2.425-8.5Z" transform="translate(-101.004 -334.815)"/><path class="b" d="M133.136,90.031l1.6-.534c-.334-.979-.667-1.958-1.045-2.936-.667-1.8-1.379-3.6-2.135-5.361L130,81.867c.734,1.735,1.446,3.515,2.091,5.272C132.469,88.118,132.825,89.075,133.136,90.031Z" transform="translate(-101.082 -63.215)"/><path class="b" d="M94.435,672.187c-.156-2.269-.245-4.56-.245-6.874,0-.623,0-1.246.022-1.869l-1.691-.044c0,.623-.022,1.268-.022,1.891,0,2.336.089,4.694.245,6.985Z" transform="translate(-71.924 -515.908)"/><path class="b" d="M104.17,545.5l-1.646-.4c-.734,3.047-1.335,5.895-1.824,8.675l1.668.289C102.858,551.328,103.458,548.526,104.17,545.5Z" transform="translate(-78.3 -423.923)"/><path class="b" d="M158.6,323.375l1.668.289c.534-2.981.957-5.917,1.268-8.787l-1.691-.178C159.534,317.525,159.134,320.439,158.6,323.375Z" transform="translate(-123.32 -244.775)"/><path class="b" d="M163.345,203.7v.111l.067,1.134,1.691-.089c-.022-.378-.044-.779-.067-1.157-.067-1.112-.156-2.224-.289-3.337-.156-1.446-.334-2.892-.556-4.36l-1.691.245c.2,1.357.378,2.736.512,4.093C163.19,201.472,163.279,202.584,163.345,203.7Z" transform="translate(-126.353 -152.479)"/><path class="b" d="M87.481,2.358C86.97,1.557,86.458.779,85.946,0H83.9c.734,1.068,1.468,2.158,2.158,3.27Z" transform="translate(-65.237 -0.078)"/><path class="o" d="M78.494,71.513A.9.9,0,0,0,79.65,72l.089-.044a.221.221,0,0,1,.111-.289h.022l.556-.222a.221.221,0,0,1,.289.111v.022h0l1.913-.779-1.246-3.047-2.736,1.112.912,2.224c.022.089,0,.178-.089.2s-.178,0-.2-.089L77.56,66.975l-.2.067-.912-2.224.156-.067-.356-.845-.156.067-.912-2.224.156-.067-.512-1.246a.167.167,0,0,1,.089-.2.165.165,0,0,1,.2.089l2.736-1.112L77.56,58.5l-2.358.957h0a.247.247,0,0,1-.111.311l-.334.133a.256.256,0,0,1-.311-.111.89.89,0,0,0-.356,1.068Z" transform="translate(-57.562 -45.565)"/><path class="p" d="M91.2,92.412l.779,1.935,2.536-1.579L93.936,91.3Z" transform="translate(-70.913 -71.069)"/><path class="p" d="M94.7,99.479V99.5l2.736-1.112-.2-.489Z" transform="translate(-73.635 -76.2)"/><path class="q" d="M94.7,99.479V99.5l2.736-1.112-.2-.489Z" transform="translate(-73.635 -76.2)"/><path class="p" d="M81.992,63.4l-2.892.734.512,1.223,2.736-1.112Z" transform="translate(-61.505 -49.375)"/><path class="p" d="M79.1,62.734,81.992,62l-.156-.4L79.1,62.734Z" transform="translate(-61.505 -47.975)"/><path class="q" d="M79.1,62.734,81.992,62l-.156-.4L79.1,62.734Z" transform="translate(-61.505 -47.975)"/><rect class="p" width="0.178" height="2.402" transform="translate(17.638 16.175) rotate(-22.079)"/><rect class="p" width="0.178" height="2.402" transform="translate(18.889 19.267) rotate(-22.079)"/><rect class="r" width="2.959" height="5.784" transform="translate(18.111 15.992) rotate(-22.079)"/><path class="s" d="M80.683,72.9,78.5,67.535l-.512-1.223v-.022h0a.154.154,0,0,0-.222-.067.18.18,0,0,0-.089.2l.512,1.246.912,2.224.356.845.912,2.224,1.713,4.226a.155.155,0,0,0,.289-.111l-.912-2.224v-.022Z" transform="translate(-60.396 -51.552)"/><path class="t" d="M76.363,62.63,76.7,62.5a.258.258,0,0,0,.133-.311h0a.258.258,0,0,0-.311-.133l-.334.133a.248.248,0,0,0-.133.311h0v.022A.256.256,0,0,0,76.363,62.63Z" transform="translate(-59.123 -48.315)"/><path class="n" d="M112.6,111.079h0l1.891-.779h0Z" transform="translate(-87.553 -85.842)"/><path class="u" d="M112.6,111.079h0l1.891-.779h0Z" transform="translate(-87.553 -85.842)"/><path class="n" d="M92.3,54.4l-2.2.89h0Z" transform="translate(-70.058 -42.377)"/><path class="u" d="M92.3,54.4l-2.2.89h0Z" transform="translate(-70.058 -42.377)"/><path class="o" d="M93.2,53.733a.143.143,0,0,1,.133-.178.173.173,0,0,1,.156.067L94,54.867l.133-.067.912,2.224-.133.067.356.845.133-.067.912,2.224-.133.067L97.9,64.388c.022.089,0,.178-.089.2s-.178,0-.2-.089h0L96.7,62.275l-2.736,1.112L95.2,66.434l1.913-.779a.221.221,0,0,1,.111-.289h.022l.556-.222a.221.221,0,0,1,.289.111v.022a.885.885,0,0,0,.445-1.134L94.2,53.466a.9.9,0,0,0-1.023-.534.231.231,0,0,1-.133.289l-.334.133a.237.237,0,0,1-.311-.133h0l-2.2.89.289.712Z" transform="translate(-70.136 -41.22)"/><path class="u" d="M93.2,53.733a.143.143,0,0,1,.133-.178.173.173,0,0,1,.156.067L94,54.867l.133-.067.912,2.224-.133.067.356.845.133-.067.912,2.224-.133.067L97.9,64.388c.022.089,0,.178-.089.2s-.178,0-.2-.089h0L96.7,62.275l-2.736,1.112L95.2,66.434l1.913-.779a.221.221,0,0,1,.111-.289h.022l.556-.222a.221.221,0,0,1,.289.111v.022a.885.885,0,0,0,.445-1.134L94.2,53.466a.9.9,0,0,0-1.023-.534.231.231,0,0,1-.133.289l-.334.133a.237.237,0,0,1-.311-.133h0l-2.2.89.289.712Z" transform="translate(-70.136 -41.22)"/><path class="p" d="M103.5,87.412l.578,1.468,2.558-1.579-.423-1Z" transform="translate(-80.477 -67.181)"/><path class="u" d="M103.5,87.412l.578,1.468,2.558-1.579-.423-1Z" transform="translate(-80.477 -67.181)"/><path class="p" d="M108.658,90.8,106.1,92.379l.2.489,2.736-1.112Z" transform="translate(-82.499 -70.68)"/><path class="q" d="M108.658,90.8,106.1,92.379l.2.489,2.736-1.112Z" transform="translate(-82.499 -70.68)"/><path class="u" d="M108.658,90.8,106.1,92.379l.2.489,2.736-1.112Z" transform="translate(-82.499 -70.68)"/><path class="p" d="M95.192,60.667l-.2-.467-2.892.712.356.845Z" transform="translate(-71.613 -46.887)"/><path class="u" d="M95.192,60.667l-.2-.467-2.892.712.356.845Z" transform="translate(-71.613 -46.887)"/><path class="p" d="M94.447,57.479l-.311-.779h0L91.4,57.812l.156.4Z" transform="translate(-71.069 -44.165)"/><path class="q" d="M94.447,57.479l-.311-.779h0L91.4,57.812l.156.4Z" transform="translate(-71.069 -44.165)"/><path class="u" d="M94.447,57.479l-.311-.779h0L91.4,57.812l.156.4Z" transform="translate(-71.069 -44.165)"/><rect class="p" width="0.156" height="2.402" transform="translate(23.869 13.655) rotate(-22.079)"/><rect class="u" width="0.156" height="2.402" transform="translate(23.869 13.655) rotate(-22.079)"/><rect class="p" width="0.156" height="2.402" transform="translate(25.111 16.727) rotate(-22.079)"/><rect class="u" width="0.156" height="2.402" transform="translate(25.111 16.727) rotate(-22.079)"/><rect class="r" width="2.959" height="5.784" transform="translate(20.845 14.88) rotate(-22.079)"/><rect class="u" width="2.959" height="5.784" transform="translate(20.845 14.88) rotate(-22.079)"/><path class="s" d="M103.758,56.857l.178.467,2.18,5.361.4,1,.378.957.912,2.224a.155.155,0,1,0,.289-.111l-1.713-4.226-.912-2.224-.356-.845-.912-2.224-.512-1.246a.154.154,0,0,0-.222-.067.163.163,0,0,0-.089.178h0Z" transform="translate(-80.379 -43.543)"/><path class="u" d="M103.758,56.857l.178.467,2.18,5.361.4,1,.378.957.912,2.224a.155.155,0,1,0,.289-.111l-1.713-4.226-.912-2.224-.356-.845-.912-2.224-.512-1.246a.154.154,0,0,0-.222-.067.163.163,0,0,0-.089.178h0Z" transform="translate(-80.379 -43.543)"/><path class="h" d="M121.741,107.951l-.556.222a.231.231,0,0,0-.133.289v.022h0a.231.231,0,0,0,.289.133h.022l.556-.222a.231.231,0,0,0,.133-.289v-.022h0a.258.258,0,0,0-.311-.133Z" transform="translate(-94.113 -84.005)"/><path class="h" d="M100.241,116.607l-.556.222a.231.231,0,0,0-.133.289h0a.231.231,0,0,0,.289.133h.022l.556-.222a.223.223,0,0,0,.133-.289v-.022h0a.234.234,0,0,0-.311-.111Z" transform="translate(-77.396 -90.725)"/><path class="t" d="M100.263,52.93l.334-.133a.231.231,0,0,0,.133-.289v-.022a.248.248,0,0,0-.311-.133h0l-.334.133a.248.248,0,0,0-.133.311h0A.23.23,0,0,0,100.263,52.93Z" transform="translate(-77.707 -40.773)"/><path class="v" d="M112.543,602.81l-.267,2.38a.143.143,0,0,1-.178.133c-.089-.022-.156-.089-.133-.178l.489-4.538-.178-.022.267-2.4.178.022.089-.912-.178-.022.267-2.4.178.022.156-1.335c.022-.089.089-.156.178-.134a.191.191,0,0,1,.133.156l2.936.311.089-.756,2.358.267h0l-4.894-.534h0a.229.229,0,0,1-.245.222h0l-.356-.044a.21.21,0,0,1-.2-.245.878.878,0,0,0-.8.779l-1.246,11.456a.893.893,0,0,0,.779.979h.089a.2.2,0,0,1,.245-.2h.022l.6.067a.2.2,0,0,1,.2.245v.022l2.046.222.356-3.27Z" transform="translate(-86.45 -461.013)"/><path class="p" d="M117.522,628.4l-.222,2.069,2.981-.178.178-1.579Z" transform="translate(-91.207 -488.694)"/><path class="p" d="M117.3,637.078v.022l2.936.311.044-.512Z" transform="translate(-91.207 -495.303)"/><path class="q" d="M117.3,637.078v.022l2.936.311.044-.512Z" transform="translate(-91.207 -495.303)"/><path class="p" d="M124.036,598.246l.111-.912-2.892-.734-.156,1.312Z" transform="translate(-94.162 -463.967)"/><path class="p" d="M121.8,596.465h0l2.892.756.044-.445-2.936-.311Z" transform="translate(-94.706 -463.855)"/><path class="q" d="M121.8,596.465h0l2.892.756.044-.445-2.936-.311Z" transform="translate(-94.706 -463.855)"/><rect class="p" width="2.402" height="0.178" transform="matrix(0.108, -0.994, 0.994, 0.108, 26.173, 136.299)"/><rect class="p" width="2.402" height="0.178" transform="matrix(0.108, -0.994, 0.994, 0.108, 25.826, 139.6)"/><rect class="w" width="5.784" height="2.959" transform="matrix(0.108, -0.994, 0.994, 0.108, 26.321, 139.713)"/><path class="x" d="M115.5,603.052l.623-5.739.156-1.335v-.022h0a.152.152,0,0,0-.156-.156.149.149,0,0,0-.156.133l-.156,1.335-.267,2.4-.089.912-.267,2.4-.489,4.538c0,.089.044.178.133.178s.178-.044.178-.133l.267-2.38v-.022Z" transform="translate(-89.186 -463.345)"/><path class="t" d="M120.422,592.379l.356.044a.246.246,0,0,0,.267-.222h0a.246.246,0,0,0-.222-.267h0l-.356-.045a.247.247,0,0,0-.267.222h0v.022A.283.283,0,0,0,120.422,592.379Z" transform="translate(-93.462 -460.303)"/><path class="n" d="M128.9,653.9h0l2.024.222h0Z" transform="translate(-100.227 -508.521)"/><path class="u" d="M128.9,653.9h0l2.024.222h0Z" transform="translate(-100.227 -508.521)"/><path class="v" d="M132.749,607.268l1.246-11.456a.871.871,0,0,0-.645-.934.23.23,0,0,1-.267.2l-.356-.044a.249.249,0,0,1-.222-.267h0l-2.358-.267-.089.756,2.936.311c.022-.089.089-.156.178-.133s.156.089.133.178l-.156,1.335.156.022-.267,2.4-.156-.022-.089.912.156.022-.267,2.4-.156-.022-.489,4.538a.143.143,0,0,1-.178.133c-.089-.022-.156-.089-.133-.178l.267-2.38-2.936-.311-.356,3.27,2.046.222a.2.2,0,0,1,.245-.2h.022l.578.067a.2.2,0,0,1,.2.245v.022A.963.963,0,0,0,132.749,607.268Z" transform="translate(-100.071 -462.335)"/><path class="u" d="M132.749,607.268l1.246-11.456a.871.871,0,0,0-.645-.934.23.23,0,0,1-.267.2l-.356-.044a.249.249,0,0,1-.222-.267h0l-2.358-.267-.089.756,2.936.311c.022-.089.089-.156.178-.133s.156.089.133.178l-.156,1.335.156.022-.267,2.4-.156-.022-.089.912.156.022-.267,2.4-.156-.022-.489,4.538a.143.143,0,0,1-.178.133c-.089-.022-.156-.089-.133-.178l.267-2.38-2.936-.311-.356,3.27,2.046.222a.2.2,0,0,1,.245-.2h.022l.578.067a.2.2,0,0,1,.2.245v.022A.963.963,0,0,0,132.749,607.268Z" transform="translate(-100.071 -462.335)"/><path class="p" d="M130.7,631.379l3-.178.111-1.068-2.936-.334Z" transform="translate(-101.627 -489.782)"/><path class="u" d="M130.7,631.379l3-.178.111-1.068-2.936-.334Z" transform="translate(-101.627 -489.782)"/><path class="p" d="M130.544,636.278l-.044.512,2.936.334.111-1.023Z" transform="translate(-101.471 -494.681)"/><path class="q" d="M130.544,636.278l-.044.512,2.936.334.111-1.023Z" transform="translate(-101.471 -494.681)"/><path class="u" d="M130.544,636.278l-.044.512,2.936.334.111-1.023Z" transform="translate(-101.471 -494.681)"/><path class="p" d="M137.236,601.123l.044-.489-2.87-.734-.111.912Z" transform="translate(-104.426 -466.533)"/><path class="u" d="M137.236,601.123l.044-.489-2.87-.734-.111.912Z" transform="translate(-104.426 -466.533)"/><path class="p" d="M137.67,599.079l.089-.845h0l-2.914-.334-.044.445Z" transform="translate(-104.814 -464.978)"/><path class="q" d="M137.67,599.079l.089-.845h0l-2.914-.334-.044.445Z" transform="translate(-104.814 -464.978)"/><path class="u" d="M137.67,599.079l.089-.845h0l-2.914-.334-.044.445Z" transform="translate(-104.814 -464.978)"/><rect class="p" width="2.402" height="0.156" transform="matrix(0.108, -0.994, 0.994, 0.108, 32.861, 137.009)"/><rect class="u" width="2.402" height="0.156" transform="matrix(0.108, -0.994, 0.994, 0.108, 32.861, 137.009)"/><rect class="p" width="2.402" height="0.156" transform="matrix(0.108, -0.994, 0.994, 0.108, 32.502, 140.322)"/><rect class="u" width="2.402" height="0.156" transform="matrix(0.108, -0.994, 0.994, 0.108, 32.502, 140.322)"/><rect class="w" width="5.784" height="2.959" transform="matrix(0.108, -0.994, 0.994, 0.108, 29.242, 140.03)"/><rect class="u" width="5.784" height="2.959" transform="matrix(0.108, -0.994, 0.994, 0.108, 29.242, 140.03)"/><path class="x" d="M143.657,599.623l-.044.489-.623,5.739-.111,1.068-.111,1.023-.267,2.38c0,.089.044.178.133.178s.178-.044.178-.133l.489-4.538.267-2.4.089-.912.267-2.4.156-1.335a.143.143,0,0,0-.133-.178c-.089,0-.178.044-.178.133h0Z" transform="translate(-110.802 -465.523)"/><path class="u" d="M143.657,599.623l-.044.489-.623,5.739-.111,1.068-.111,1.023-.267,2.38c0,.089.044.178.133.178s.178-.044.178-.133l.489-4.538.267-2.4.089-.912.267-2.4.156-1.335a.143.143,0,0,0-.133-.178c-.089,0-.178.044-.178.133h0Z" transform="translate(-110.802 -465.523)"/><path class="h" d="M138.911,654.055l-.578-.067a.208.208,0,0,0-.245.178v.022h0a.208.208,0,0,0,.178.245h.022l.578.067a.208.208,0,0,0,.245-.178V654.3h0a.244.244,0,0,0-.178-.267C138.933,654.055,138.933,654.055,138.911,654.055Z" transform="translate(-107.368 -508.587)"/><path class="h" d="M115.833,651.555l-.6-.067a.208.208,0,0,0-.245.178v.022h0a.208.208,0,0,0,.178.245h.022l.6.067a.208.208,0,0,0,.245-.178V651.8h0a.208.208,0,0,0-.178-.245Z" transform="translate(-89.407 -506.643)"/><path class="t" d="M145.89,594.912a.247.247,0,0,0,.222.267h0l.356.044a.23.23,0,0,0,.267-.2V595a.246.246,0,0,0-.222-.267h0l-.356-.045a.247.247,0,0,0-.267.222Z" transform="translate(-113.435 -462.48)"/><path class="h" d="M206.7,350.1Z" transform="translate(-160.721 -272.3)"/><path class="h" d="M212.4,350.722V350.7h0Z" transform="translate(-165.153 -272.766)"/><path class="h" d="M178.79,347.442a.277.277,0,0,0,.245.311h0l.712.067a.277.277,0,0,0,.311-.245h0v-.022l-1.268-.111Z" transform="translate(-139.017 -270.22)"/><path class="y" d="M220.7,313.8h0v0Z" transform="translate(-171.607 -244.075)"/><path class="y" d="M216.945,347.3a.169.169,0,0,1-.044.089A.116.116,0,0,0,216.945,347.3Z" transform="translate(-168.652 -270.123)"/><path class="y" d="M216.567,348.2c-.022.044-.044.067-.067.111A.485.485,0,0,1,216.567,348.2Z" transform="translate(-168.341 -270.823)"/><path class="y" d="M174.778,317.441l.133-1.335h0l.467-4.649,4.026.4.089-1.068-4.827-.445.067-.645-.756,7.207a1.054,1.054,0,0,0,.956,1.157h.111l1.268.133,2.469.245.067-.6Z" transform="translate(-135.271 -240.887)"/><path class="y" d="M215.911,348.9c-.044.044-.067.089-.111.111Z" transform="translate(-167.796 -271.367)"/><path class="y" d="M217.3,323.229l.69-6.629h0Z" transform="translate(-168.963 -246.252)"/><path class="y" d="M212.3,349.845h0a.985.985,0,0,0,.734-.245A1.122,1.122,0,0,1,212.3,349.845Z" transform="translate(-165.075 -271.911)"/><path class="y" d="M204.523,349.944l-.623-.045.623.045Z" transform="translate(-158.544 -272.144)"/><path class="p" d="M181.782,338.9l-4.048-.4-.133,1.335h4.093Z" transform="translate(-138.094 -263.28)"/><path class="p" d="M177.6,344.5l4.071.4.022-.4Z" transform="translate(-138.094 -267.946)"/><path class="q" d="M177.6,344.5l4.071.4.022-.4Z" transform="translate(-138.094 -267.946)"/><path class="z" d="M178.2,322.249h0l4.049.4.222-2.247-.934-.089.022-.156.912.089.222-2.247-4.026-.4Z" transform="translate(-138.56 -247.029)"/><path class="v" d="M216.8,246.544a.169.169,0,0,1,.089-.044C216.844,246.522,216.822,246.522,216.8,246.544Z" transform="translate(-168.574 -191.745)"/><path class="v" d="M221.3,246.9c.022.022.044.022.067.044C221.344,246.944,221.322,246.922,221.3,246.9Z" transform="translate(-172.073 -192.056)"/><path class="v" d="M216.411,246.7a.306.306,0,0,0-.111.178h0A.227.227,0,0,1,216.411,246.7Z" transform="translate(-168.185 -191.901)"/><path class="v" d="M221.7,247.2a.272.272,0,0,1,.067.2A.359.359,0,0,0,221.7,247.2Z" transform="translate(-172.384 -192.289)"/><path class="v" d="M189.59,244.068a.277.277,0,0,0-.245-.311h-.022l-.712-.067a.277.277,0,0,0-.311.245h0v.022l1.29.111Z" transform="translate(-146.414 -189.558)"/><path class="h" d="M180.882,244.722l-1.268-.133-1.09-.089L177.167,259l-.067.645,4.827.445,1.424-15.148Z" transform="translate(-137.705 -190.19)"/><rect class="p" width="0.156" height="0.934" transform="translate(42.964 73.295) rotate(-84.57)"/><path class="n" d="M207.669,246.745,205.2,246.5h0Z" transform="translate(-159.554 -191.745)"/><path class="u" d="M207.669,246.745,205.2,246.5h0Z" transform="translate(-159.554 -191.745)"/><path class="n" d="M221.6,247.2Z" transform="translate(-172.306 -192.29)"/><path class="u" d="M221.6,247.2Z" transform="translate(-172.306 -192.29)"/><path class="n" d="M220.8,246.8c.044,0,.067.022.111.022A.962.962,0,0,0,220.8,246.8Z" transform="translate(-171.684 -191.978)"/><path class="u" d="M220.8,246.8c.044,0,.067.022.111.022A.962.962,0,0,0,220.8,246.8Z" transform="translate(-171.684 -191.978)"/><path class="n" d="M217.2,246.422c.044,0,.067-.022.111-.022A.242.242,0,0,1,217.2,246.422Z" transform="translate(-168.885 -191.667)"/><path class="u" d="M217.2,246.422c.044,0,.067-.022.111-.022A.242.242,0,0,1,217.2,246.422Z" transform="translate(-168.885 -191.667)"/><path class="n" d="M216.8,246.7Z" transform="translate(-168.574 -191.901)"/><path class="u" d="M216.8,246.7Z" transform="translate(-168.574 -191.901)"/><path class="n" d="M216.323,348.7c-.022.022-.022.044-.044.044S216.3,348.7,216.323,348.7Z" transform="translate(-168.164 -271.211)"/><path class="u" d="M216.323,348.7c-.022.022-.022.044-.044.044S216.3,348.7,216.323,348.7Z" transform="translate(-168.164 -271.211)"/><path class="n" d="M220.4,316.6Z" transform="translate(-171.373 -246.252)"/><path class="u" d="M220.4,316.6Z" transform="translate(-171.373 -246.252)"/><path class="n" d="M215.8,349.5Z" transform="translate(-167.797 -271.833)"/><path class="u" d="M215.8,349.5Z" transform="translate(-167.797 -271.833)"/><path class="n" d="M216.844,347.7c-.022.044-.022.067-.044.111C216.822,347.767,216.822,347.745,216.844,347.7Z" transform="translate(-168.574 -270.434)"/><path class="u" d="M216.844,347.7c-.022.044-.022.067-.044.111C216.822,347.767,216.822,347.745,216.844,347.7Z" transform="translate(-168.574 -270.434)"/><path class="n" d="M217.144,346.4a.65.65,0,0,1-.044.2A.65.65,0,0,0,217.144,346.4Z" transform="translate(-168.807 -269.423)"/><path class="u" d="M217.144,346.4a.65.65,0,0,1-.044.2A.65.65,0,0,0,217.144,346.4Z" transform="translate(-168.807 -269.423)"/><path class="n" d="M223.068,248.189,222,248.1h0Z" transform="translate(-172.617 -192.989)"/><path class="u" d="M223.068,248.189,222,248.1h0Z" transform="translate(-172.617 -192.989)"/><path class="n" d="M195.6,349h0l1.846.2Z" transform="translate(-152.09 -271.445)"/><path class="u" d="M195.6,349h0l1.846.2Z" transform="translate(-152.09 -271.445)"/><path class="h" d="M207.891,350.311l-1.2-.111v.022a.277.277,0,0,0,.245.311h0l.712.067a.277.277,0,0,0,.311-.245h0v-.022h-.067Z" transform="translate(-160.711 -272.378)"/><path class="u" d="M207.891,350.311l-1.2-.111v.022a.277.277,0,0,0,.245.311h0l.712.067a.277.277,0,0,0,.311-.245h0v-.022h-.067Z" transform="translate(-160.711 -272.378)"/><path class="y" d="M196.312,314.6l-.089,1.068,4.115.4-.423,4.4h0l-.156,1.6-4.093-.4-.067.6,1.846.178.623.067h0l1.2.111h.044a.985.985,0,0,0,.734-.245l.022-.022.111-.111c.022-.022.022-.044.044-.044.022-.044.044-.067.067-.111s.022-.067.044-.111c.022-.022.022-.044.044-.089a.649.649,0,0,0,.044-.2l.69-6.629h0Z" transform="translate(-152.09 -244.697)"/><path class="u" d="M196.312,314.6l-.089,1.068,4.115.4-.423,4.4h0l-.156,1.6-4.093-.4-.067.6,1.846.178.623.067h0l1.2.111h.044a.985.985,0,0,0,.734-.245l.022-.022.111-.111c.022-.022.022-.044.044-.044.022-.044.044-.067.067-.111s.022-.067.044-.111c.022-.022.022-.044.044-.089a.649.649,0,0,0,.044-.2l.69-6.629h0Z" transform="translate(-152.09 -244.697)"/><path class="p" d="M196.089,340.3l-.089.934,4.137.022-.067.779.156-1.579h0l-.022.245Z" transform="translate(-152.401 -264.68)"/><path class="u" d="M196.089,340.3l-.089.934,4.137.022-.067.779.156-1.579h0l-.022.245Z" transform="translate(-152.401 -264.68)"/><path class="p" d="M195.922,344.5l-.022.4,4.093.4.067-.779Z" transform="translate(-152.323 -267.946)"/><path class="q" d="M195.922,344.5l-.022.4,4.093.4.067-.779Z" transform="translate(-152.323 -267.946)"/><path class="u" d="M195.922,344.5l-.022.4,4.093.4.067-.779Z" transform="translate(-152.323 -267.946)"/><path class="z" d="M197.623,321.736v.156l-1-.089-.222,2.247,4.115.4.022-.245.423-4.4-4.115-.4-.222,2.247Z" transform="translate(-152.712 -248.429)"/><path class="u" d="M197.623,321.736v.156l-1-.089-.222,2.247,4.115.4.022-.245.423-4.4-4.115-.4-.222,2.247Z" transform="translate(-152.712 -248.429)"/><path class="v" d="M217.49,246.856h0a.359.359,0,0,0-.067-.2l-.022-.022c-.022-.022-.044-.044-.067-.044a.167.167,0,0,0-.111-.022l-.712-.067a.2.2,0,0,0-.111.022.169.169,0,0,0-.089.044h0a.306.306,0,0,0-.111.178h0Z" transform="translate(-168.108 -191.745)"/><path class="u" d="M217.49,246.856h0a.359.359,0,0,0-.067-.2l-.022-.022c-.022-.022-.044-.044-.067-.044a.167.167,0,0,0-.111-.022l-.712-.067a.2.2,0,0,0-.111.022.169.169,0,0,0-.089.044h0a.306.306,0,0,0-.111.178h0Z" transform="translate(-168.108 -191.745)"/><path class="h" d="M198.8,261.648l4.8.445h0l.067-.6v-.022l1.357-14.526-1.068-.089-1.268-.111-2.469-.245Z" transform="translate(-154.578 -191.745)"/><path class="u" d="M198.8,261.648l4.8.445h0l.067-.6v-.022l1.357-14.526-1.068-.089-1.268-.111-2.469-.245Z" transform="translate(-154.578 -191.745)"/><rect class="p" width="0.156" height="1.001" transform="translate(44.111 72.992) rotate(-84.857)"/><rect class="u" width="0.156" height="1.001" transform="translate(44.111 72.992) rotate(-84.857)"/></g></g><g transform="translate(56 349)"><g class="bc" transform="matrix(1, 0, 0, 1, 1216.48, 845.66)"><path class="c" d="M1237.037,939.338l96.772.159-.1,74-96.771-.159Z" transform="translate(-1216.48 -845.66)"/></g><g class="aa"><g class="bb" transform="matrix(1, 0, 0, 1, 1216.48, 845.66)"><g class="ab" transform="translate(-1216.48 -845.66)"><path class="ah" d="M1224.81,951.1v-.6l122.109.2v.6Z"/><path class="ai" d="M 1346.91943359375 951.2977905273438 L 1224.810180664063 951.0983276367188 L 1224.811157226563 950.4942016601563 L 1346.920166015625 950.6937255859375 L 1346.91943359375 951.2977905273438 Z"/></g></g><g class="ba" transform="matrix(1, 0, 0, 1, 1216.48, 845.66)"><g class="ab" transform="translate(-1216.48 -845.66)"><path class="ah" d="M1224.787,968.315v-.6l122.109.2v.6Z"/><path class="ai" d="M 1346.896484375 968.5151977539063 L 1224.787231445313 968.3151245117188 L 1224.787963867188 967.7109985351563 L 1346.8974609375 967.9116821289063 L 1346.896484375 968.5151977539063 Z"/></g></g><g class="az" transform="matrix(1, 0, 0, 1, 1216.48, 845.66)"><g class="ab" transform="translate(-1216.48 -845.66)"><path class="ah" d="M1224.764,985.834v-.6l122.109.2v.6Z"/><path class="ai" d="M 1346.873046875 986.0346069335938 L 1224.764038085938 985.83447265625 L 1224.764770507813 985.2308959960938 L 1346.873901367188 985.4304809570313 L 1346.873046875 986.0346069335938 Z"/></g></g><g class="ay" transform="matrix(1, 0, 0, 1, 1216.48, 845.66)"><g class="ab" transform="translate(-1216.48 -845.66)"><path class="ah" d="M1224.741,1003.052v-.6l122.109.2v.6Z"/><path class="ai" d="M 1346.850341796875 1003.252014160156 L 1224.741088867188 1003.052490234375 L 1224.741821289063 1002.447814941406 L 1346.850952148438 1002.647094726563 L 1346.850341796875 1003.252014160156 Z"/></g></g><g class="ax" transform="matrix(1, 0, 0, 1, 1216.48, 845.66)"><g class="ab" transform="translate(-1216.48 -845.66)"><path class="ah" d="M1314.919,911.675h.61l-.161,120.824h-.61Z"/><path class="ai" d="M 1314.918579101563 911.675537109375 L 1315.529052734375 911.6767578125 L 1315.367919921875 1032.500244140625 L 1314.757568359375 1032.499633789063 L 1314.918579101563 911.675537109375 Z"/></g></g><g class="aw" transform="matrix(1, 0, 0, 1, 1216.48, 845.66)"><g class="ab" transform="translate(-1216.48 -845.66)"><path class="ah" d="M1294.16,911.641l.611,0-.161,120.823H1294Z"/><path class="ai" d="M 1294.159912109375 911.640869140625 L 1294.7705078125 911.642578125 L 1294.609619140625 1032.465942382813 L 1293.998901367188 1032.465454101563 L 1294.159912109375 911.640869140625 Z"/></g></g><g class="av" transform="matrix(1, 0, 0, 1, 1216.48, 845.66)"><g class="ab" transform="translate(-1216.48 -845.66)"><path class="ah" d="M1273.1,911.607h.61l-.161,120.824h-.611Z"/><path class="ai" d="M 1273.09619140625 911.607177734375 L 1273.706665039063 911.6082763671875 L 1273.545654296875 1032.432006835938 L 1272.93505859375 1032.430541992188 L 1273.09619140625 911.607177734375 Z"/></g></g><g class="au" transform="matrix(1, 0, 0, 1, 1216.48, 845.66)"><g class="ab" transform="translate(-1216.48 -845.66)"><path class="ah" d="M1252.338,911.573h.611l-.161,120.824h-.61Z"/><path class="ai" d="M 1252.337646484375 911.573486328125 L 1252.9482421875 911.5740966796875 L 1252.786987304688 1032.398315429688 L 1252.1767578125 1032.39697265625 L 1252.337646484375 911.573486328125 Z"/></g></g></g></g><g class="at" transform="matrix(1, 0, 0, 1, 1272.48, 1194.66)"><path class="ac" d="M1283.3,951.746h31.722l-.006,30.788H1283.3Z" transform="translate(-1216.48 -845.66)"/></g><g class="as" transform="matrix(1, 0, 0, 1, 1272.48, 1194.66)"><path class="n" d="M1294.509,961.214l4.414,8.52s7.178-17.314,18.493-23.086c-.277,4.123-1.381,7.7.549,12.093-4.967,1.1-15.18,13.466-18.492,19.513-4.69-5.772-10.208-10.169-14.071-11.543Z" transform="translate(-1216.48 -845.66)"/></g><g transform="translate(56 349)"><g class="ar" transform="matrix(1, 0, 0, 1, 1216.48, 845.66)"><path class="n" d="M1229.626,877.308l108.234.177-.056,48.187L1229.57,925.5Z" transform="translate(-1216.48 -845.66)"/></g><text class="ad" transform="matrix(1, 0.002, -0.001, 1, 1240.742, 898.176)"><tspan x="0" y="0">Drive license</tspan><tspan x="0" y="11">training record</tspan></text></g><g class="aq" transform="matrix(1, 0, 0, 1, 1272.48, 1194.66)"><path class="e" d="M1239.02,1028.005l21.079-7.521,29.109,1.635-24.759,8.5Z" transform="translate(-1216.48 -845.66)"/></g><g class="ap" transform="matrix(1, 0, 0, 1, 1272.48, 1194.66)"><path class="ae" d="M1239.354,1027.677l25.094,2.616v17l-25.094-2.616Z" transform="translate(-1216.48 -845.66)"/></g><g class="ao" transform="matrix(1, 0, 0, 1, 1272.48, 1194.66)"><path class="af" d="M1264.448,1030.293v17l24.759-9.81v-15.7Z" transform="translate(-1216.48 -845.66)"/></g><g class="an" transform="matrix(1, 0, 0, 1, 1272.48, 1194.66)"><path class="f" d="M1271.95,991.192s1.68,17.55-2.535,31.829c0,0,9.433,3.033-3.042,2.487a71.09,71.09,0,0,0-1.521-27.353s-.173,16.885-3.041,24.866c0,0,6.909,2.543-3.042,1.989,0,0,.926-24.37,0-34.315Z" transform="translate(-1216.48 -845.66)"/></g><g class="am" transform="matrix(1, 0, 0, 1, 1272.48, 1194.66)"><path class="b" d="M1289.515,971.3s2.281,2.426-1.014,3.979-8.111,4.476-8.111,4.476-2.893,1.139-4.562-.995,0,.5,0,.5l2.028-3.978s1.077,1.212,3.548.5,6.083-1.492,6.083-1.492Z" transform="translate(-1216.48 -845.66)"/></g><g class="al" transform="matrix(1, 0, 0, 1, 1272.48, 1194.66)"><path class="ag" d="M1278.363,975.775l-5.069-4.476s-.42-1.957-7.1-1.989-6.949,3.539-7.1,4.974.4,5.719.507,7.957a34.016,34.016,0,0,1-.507,6.962c-.3,1.264-1.085,6.513,6.59,6.466s7.1-3.979,7.1-3.979l.507-12.433,3.041.995Z" transform="translate(-1216.48 -845.66)"/></g><g class="ak" transform="matrix(1, 0, 0, 1, 1272.48, 1194.66)"><path class="b" d="M1269.238,961.352s2.781,5.471-1.014,6.963l-.507,1.989h-3.042s-.386-1.508-.507-2.487a15.219,15.219,0,0,1,.507-3.482Z" transform="translate(-1216.48 -845.66)"/></g><g class="aj" transform="matrix(1, 0, 0, 1, 1272.48, 1194.66)"><path class="f" d="M1269.238,960.358s-2.045-3.649-5.576-.5-1.836,5.053-.507,6.465,2.73,1.607,4.562-.994c0,0-1.538-2.175,1.014-1.492C1268.731,963.839,1268.358,960.689,1269.238,960.358Z" transform="translate(-1216.48 -845.66)"/></g></g></svg>