<svg id="52154943-029b-47ce-84c1-1ceb116b56c9" data-name="vision_iot" xmlns="http://www.w3.org/2000/svg" width="60" height="60" viewBox="0 0 60 60"><title>vision_iot</title><rect width="60" height="60" fill="none"/><path d="M30,5a25.42,25.42,0,0,0-2.9.17h0A25,25,0,1,0,30,5ZM28.06,8q1-.08,1.94-.09A22.06,22.06,0,0,1,51.92,27.45a63.13,63.13,0,0,1-10.72,6.85,5.37,5.37,0,0,0-9.5,3.43c0,.08,0,.16,0,.24a48.93,48.93,0,0,1-11.79,1.74,33.73,33.73,0,0,1-.75-11,5.37,5.37,0,0,0,2.51-9.64A64.64,64.64,0,0,1,28.06,8ZM39.52,37.74a2.44,2.44,0,1,1-2.44-2.44h0A2.44,2.44,0,0,1,39.52,37.74Zm-21-11.88a2.44,2.44,0,1,1,2.44-2.44A2.44,2.44,0,0,1,18.48,25.85ZM7.93,30A22.07,22.07,0,0,1,24.06,8.74a57.67,57.67,0,0,0-5.11,9.33l-.46,0A5.37,5.37,0,0,0,16.27,28.3a36.53,36.53,0,0,0,.66,11.4A52.41,52.41,0,0,1,9.82,39,22,22,0,0,1,7.93,30ZM11.6,42.2a54.54,54.54,0,0,0,6.07.46,52.93,52.93,0,0,0,2.67,7.2A22.28,22.28,0,0,1,11.6,42.2ZM30,52.07a22.19,22.19,0,0,1-5.7-.74,53.43,53.43,0,0,1-3.6-8.7,51.82,51.82,0,0,0,11.93-1.87A5.37,5.37,0,0,0,42.39,37,64.82,64.82,0,0,0,52,31,22.06,22.06,0,0,1,30,52.07Z" fill="#305278"/></svg>