<svg id="2c836a5b-2572-4455-814d-65dad1f9fa77" data-name="vision_share_data" xmlns="http://www.w3.org/2000/svg" width="60" height="60" viewBox="0 0 60 60"><title>vision_share_data</title><rect width="60" height="60" fill="none"/><path d="M2.1,30c0,4,4.4,7.4,11.34,9.54-1.62,7.11-.87,12.73,2.49,14.69a5.73,5.73,0,0,0,3,.75,8.44,8.44,0,0,0,2.2-.29,22.33,22.33,0,0,0,8.73-5.61c3,2.89,6.07,4.86,8.73,5.55a8.45,8.45,0,0,0,2.2.29,5.73,5.73,0,0,0,3-.75c3.41-2,4.17-7.58,2.49-14.69C53.06,37.42,57.52,34,57.52,30s-4.45-7.4-11.34-9.54C47.8,13.35,47,7.74,43.69,5.78a6.58,6.58,0,0,0-5.09-.46c-2,.52-5.78,2.72-8.79,5.61-3-2.89-6.08-4.86-8.74-5.55S17.37,5,16,5.84c-3.41,2-4.16,7.58-2.49,14.69C6.55,22.61,2.1,26,2.1,30ZM20.49,52.45a4.28,4.28,0,0,1-3.35-.23c-2.6-1.5-2.78-6.3-1.39-12.09a54,54,0,0,0,7.52,1.27,55.81,55.81,0,0,0,4.92,6A19.54,19.54,0,0,1,20.49,52.45Zm1.27-27.18c.92-1.56,1.85-3.07,2.83-4.51,1.68-.12,3.41-.23,5.26-.23a51.13,51.13,0,0,1,5.26.23c1,1.45,1.91,3,2.83,4.51A52.38,52.38,0,0,1,40.39,30c-.75,1.62-1.56,3.18-2.43,4.74s-1.85,3.07-2.83,4.51c-1.68.12-3.41.23-5.26.23a51.13,51.13,0,0,1-5.26-.23c-1-1.45-1.91-3-2.83-4.51A52.38,52.38,0,0,1,19.34,30,40.79,40.79,0,0,1,21.76,25.27Zm-3.64,1.91c-.69-1.74-1.27-3.47-1.79-5.15a49.86,49.86,0,0,1,5.26-1q-.93,1.5-1.85,3.07c-.58,1-1.16,2.08-1.62,3.07Zm11.69-13a52.23,52.23,0,0,1,3.47,4.16l-3.47-.12-3.47.12A52.23,52.23,0,0,1,29.81,14.22ZM38,21.1a49.86,49.86,0,0,1,5.26,1,49.68,49.68,0,0,1-1.79,5.15c-.52-1-1-2-1.62-3.07S38.65,22.09,38,21.1Zm3.47,11.74c.69,1.74,1.27,3.47,1.79,5.15A49.86,49.86,0,0,1,38,39q.92-1.5,1.85-3.07c.58-1,1.16-2.08,1.62-3.07Zm-11.68,13a52.23,52.23,0,0,1-3.47-4.16l3.47.12,3.47-.12A52.23,52.23,0,0,1,29.81,45.8ZM19.74,35.91q.93,1.56,1.85,3.07a49.86,49.86,0,0,1-5.26-1,49.68,49.68,0,0,1,1.79-5.15C18.58,33.83,19.16,34.87,19.74,35.91ZM42.47,52.22a4.28,4.28,0,0,1-3.35.23c-2.31-.64-5-2.37-7.69-5a55.82,55.82,0,0,0,4.92-6,54,54,0,0,0,7.52-1.27C45.25,45.92,45.08,50.72,42.47,52.22ZM55.2,30c0,2.72-3.53,5.5-9.6,7.35A55.35,55.35,0,0,0,42.88,30a55.35,55.35,0,0,0,2.72-7.35C51.61,24.52,55.2,27.29,55.2,30ZM39.12,7.57a6.07,6.07,0,0,1,1.56-.23,3.47,3.47,0,0,1,1.79.46c2.6,1.5,2.78,6.3,1.39,12.09a54,54,0,0,0-7.52-1.27,55.81,55.81,0,0,0-4.92-6A19.54,19.54,0,0,1,39.12,7.57Zm-22,.23a3.47,3.47,0,0,1,1.79-.46,6.07,6.07,0,0,1,1.56.23c2.31.64,5,2.37,7.69,5a55.82,55.82,0,0,0-4.92,6,54,54,0,0,0-7.52,1.27c-1.39-5.73-1.22-10.53,1.39-12ZM14,22.67A55.35,55.35,0,0,0,16.73,30,55.35,55.35,0,0,0,14,37.36c-6-1.85-9.6-4.63-9.6-7.35S8,24.52,14,22.67Z" fill="#305278"/><path d="M29.81,37c3.47,0,6.94-1,6.94-3.18V26.31h0c0-2.2-3.47-3.18-6.94-3.18s-6.94,1-6.94,3.18h0v7.52C22.86,36,26.33,37,29.81,37Zm4.63-7.17c-.35.35-2,1-4.63,1s-4.28-.64-4.63-1V28.68a13.71,13.71,0,0,0,4.63.69,13.71,13.71,0,0,0,4.63-.69Zm-9.25,3.88V32.38a13.71,13.71,0,0,0,4.63.69,13.71,13.71,0,0,0,4.63-.69v1.33c-.35.35-2,1-4.63,1S25.53,34.06,25.18,33.71Zm4.63-8.38a8.89,8.89,0,0,1,4.45.87,9.6,9.6,0,0,1-4.45.87,8.89,8.89,0,0,1-4.45-.87A9.6,9.6,0,0,1,29.81,25.33Z" fill="#305278"/></svg>