<svg id="5f59ff1c-2231-4afc-b3c5-513eb3299988" data-name="vision_value" xmlns="http://www.w3.org/2000/svg" width="60" height="60" viewBox="0 0 60 60"><title>vision_value</title><rect width="60" height="60" fill="none"/><circle cx="30" cy="30" r="25" fill="none"/><path d="M30,55A25,25,0,1,1,55,30,25,25,0,0,1,30,55ZM30,8.1A21.9,21.9,0,1,0,51.9,30,21.93,21.93,0,0,0,30,8.1Z" fill="#305278"/><circle cx="30" cy="30" r="15" fill="none"/><path d="M30,45A15,15,0,1,1,45,30,15,15,0,0,1,30,45Zm0-26A11,11,0,1,0,41,30,11,11,0,0,0,30,19Z" fill="#305278"/><circle cx="30" cy="30" r="5" fill="#305278"/></svg>