<svg id="05750486-a231-4c6c-a15a-1f2a5a182db4" data-name="vision_develop" xmlns="http://www.w3.org/2000/svg" width="60" height="60" viewBox="0 0 60 60"><title>vision_develop</title><rect width="60" height="60" fill="none"/><path d="M30,5A25,25,0,1,0,55,30,25,25,0,0,0,30,5ZM9.35,38.89A23,23,0,0,1,7.49,30a21.91,21.91,0,0,1,1.85-8.89Zm10,10.87A21.27,21.27,0,0,1,15,46.69h4.35Zm27.94-5.44v-13h5.11A22.44,22.44,0,0,1,47.33,44.32ZM50.59,21H24.18a1.28,1.28,0,0,0,0,2.56H51.55a20,20,0,0,1,.9,5.18H46a1.28,1.28,0,0,0-1.28,1.28V47a20.8,20.8,0,0,1-1.85,1.47H30.26V37.1A1.28,1.28,0,0,0,29,35.82H20.41a2.78,2.78,0,0,0-2.56-1.6,2.88,2.88,0,1,0,0,5.75,2.78,2.78,0,0,0,2.56-1.6H27.7V49.69A1.28,1.28,0,0,0,29,51h9.27A22,22,0,0,1,30,52.57,21.58,21.58,0,0,1,21.88,51v-5.5a1.28,1.28,0,0,0-1.28-1.28h-8a10.93,10.93,0,0,1-.7-.9V16.7A22,22,0,0,1,15,13.31V30a1.28,1.28,0,0,0,1.28,1.28H36.2v6.78a3.84,3.84,0,1,0,2.56,0V30a1.28,1.28,0,0,0-1.28-1.28H17.53V11.33a23.43,23.43,0,0,1,5.05-2.56H37.35a22.9,22.9,0,0,1,8.12,4.92H28.34a2.78,2.78,0,0,0-2.56-1.59,2.88,2.88,0,0,0,0,5.75,2.78,2.78,0,0,0,2.56-1.6H47.78A22.47,22.47,0,0,1,50.59,21Z" fill="#305278"/></svg>